M48
METRIC,TZ
T01C.5
T02C1.
T03C1.3
T04C3.2
;LEADER: 12 
;HEADER: 
;CODE  : ASCII 
;FILE  : BSK-PI_03v1-1-2.drl for  ... layers TOP and BOTTOM
;T01 Holesize 1. = 0.500000 Tolerance = +0.000000/-0.000000 PLATED MM Quantity = 118
;T02 Holesize 2. = 1.000000 Tolerance = +0.000000/-0.000000 PLATED MM Quantity = 40
;T03 Holesize 3. = 1.300000 Tolerance = +0.000000/-0.000000 PLATED MM Quantity = 64
;T04 Holesize 4. = 3.200000 Tolerance = +0.000000/-0.000000 PLATED MM Quantity = 4
%
G90
T01
X-1828800Y114300
X-1930400Y101600
X-1727200Y127000
X-1625600Y139700
X-1524000Y152400
X-1422400Y165100
X-1371600Y266700
X-1270000Y279400
X-1955800Y292100
X-1854200Y304800
X-1752600Y317500
X-1651000Y330200
X-1549400Y368300
X-1447800Y342900
X-1346200Y381000
X-1244600Y355600
X-743590Y22700
X-643590
X-560840Y78840
X-660620Y85350
X-2000200Y22700
R08X100000
X-1209850Y85350
R07X-100000
X-1327150Y184150
X-1174750
X-908050Y177800
X-766190Y181350
R04X100000
X-1485900Y266700
R02X-101600
X-1848130Y324900
X-1749010Y338190
X-1649860Y351170
X-1485900Y349250
X-1587500Y355600
X-1172330Y397230
X-1009650Y400050
R06X101600
X-172920Y386400
X-148850Y289340
Y189340
X-63560Y137130
X-22700Y228400
Y328400
X-95070Y397410
X-162690Y471090
X-254510Y510700
R17X-100000
X-2012950Y387350
X-2136300Y308450
Y208450
X-2066780Y136570
X-2038350Y298450
X-1879600Y127000
X-1892300Y266700
X-1790700
X-1778000Y139700
X-1676400Y152400
X-1574800Y165100
X-1473200Y177800
X-1397000Y266700
X-1174750Y247650
X-1295400
X-1333500Y400050
X-1403350Y387350
X-1504950
X-1708150
R02X-101600
X-292100Y400050
X-177800Y25400
X-1962150Y158750
X-1955800Y361950
X-1009650Y177800
X-1054100Y25400
X-88900Y254000
X-2133600Y127000
Y406400
X-2070100Y393700
T02
X-762000Y63500
Y38100
X-787400Y63500
Y38100
X-812800Y63500
Y38100
X-838200Y63500
Y38100
X-863600Y63500
Y38100
X-889000Y63500
Y38100
X-914400Y63500
Y38100
X-939800Y63500
Y38100
X-965200Y63500
Y38100
X-990600Y63500
Y38100
X-317500Y63500
Y38100
X-342900Y63500
Y38100
X-368300Y63500
Y38100
X-393700Y63500
Y38100
X-419100Y63500
Y38100
X-444500Y63500
Y38100
X-469900Y63500
Y38100
X-495300Y63500
Y38100
X-520700Y63500
Y38100
X-546100Y63500
Y38100
T03
X-330200Y215900
Y190500
X-431800Y457200
Y431800
X-533400Y457200
Y431800
X-635000Y457200
Y431800
X-736600Y457200
Y431800
X-838200Y457200
Y431800
X-939800Y457200
Y431800
X-1041400Y457200
Y431800
X-1295400Y215900
Y190500
X-1397000Y215900
Y190500
X-1498600Y215900
Y190500
X-431800Y215900
Y190500
X-1600200Y215900
Y190500
X-1701800Y215900
Y190500
X-1803400Y215900
Y190500
X-1905000Y215900
Y190500
X-2006600Y215900
Y190500
X-1295400Y457200
Y431800
X-1397000Y457200
Y431800
X-1498600Y457200
Y431800
X-1600200Y457200
Y431800
X-1701800Y457200
Y431800
X-533400Y215900
Y190500
X-1803400Y457200
Y431800
X-1905000Y457200
Y431800
X-2006600Y457200
Y431800
X-635000Y215900
Y190500
X-736600Y215900
Y190500
X-838200Y215900
Y190500
X-939800Y215900
Y190500
X-1041400Y215900
Y190500
X-330200Y457200
Y431800
T04
X-2082800Y50800
Y482600
X-76200Y50800
Y482600
M30
