G04 ================== begin FILE IDENTIFICATION RECORD ==================*
G04 Layout Name:  E:/ORCAD_SCH/K400/BSK-PI/BSK-PI_03V1/pcb/BSK-PI_03v1.brd*
G04 Film Name:    SILK_BOT*
G04 File Format:  Gerber RS274X*
G04 File Origin:  Cadence Allegro 16.6-S001*
G04 Origin Date:  Tue Jan 29 17:03:33 2013*
G04 *
G04 Layer:  MANUFACTURING/AUTOSILK_BOTTOM*
G04 *
G04 Offset:    (0.000 0.000)*
G04 Mirror:    No*
G04 Mode:      Positive*
G04 Rotation:  0*
G04 FullContactRelief:  No*
G04 UndefLineWidth:     0.250*
G04 ================== end FILE IDENTIFICATION RECORD ====================*
%FSLAX34Y34*MOMM*%
%IR0*IPPOS*OFA0.00000B0.00000*MIA0B0*SFA1.00000B1.00000*%
%ADD10C,.2*%
%ADD11C,.3*%
%ADD12C,.25*%
G75*
%LPD*%
G75*
G54D10*
G01X-2020600Y229200D02*
G03X-1992600I14000J-25930D01*
G01X-2020600Y470500D02*
G03X-1992600I14000J-25930D01*
G01X-2020600Y229200D02*
X-1992600D01*
G01X-2020600Y470500D02*
X-1992600D01*
G01X-1919000Y229200D02*
G03X-1891000I14000J-25930D01*
G01X-1919000Y470500D02*
G03X-1891000I14000J-25930D01*
G01X-1919000Y229200D02*
X-1891000D01*
G01X-1919000Y470500D02*
X-1891000D01*
G01X-1817400Y229200D02*
G03X-1789400I14000J-25930D01*
G01X-1817400Y470500D02*
G03X-1789400I14000J-25930D01*
G01X-1817400Y229200D02*
X-1789400D01*
G01X-1817400Y470500D02*
X-1789400D01*
G01X-1715800Y229200D02*
G03X-1687800I14000J-25930D01*
G01X-1715800Y470500D02*
G03X-1687800I14000J-25930D01*
G01X-1715800Y229200D02*
X-1687800D01*
G01X-1715800Y470500D02*
X-1687800D01*
G01X-1614200Y229200D02*
G03X-1586200I14000J-25930D01*
G01X-1614200Y470500D02*
G03X-1586200I14000J-25930D01*
G01X-1614200Y229200D02*
X-1586200D01*
G01X-1614200Y470500D02*
X-1586200D01*
G01X-1512600Y229200D02*
G03X-1484600I14000J-25930D01*
G01X-1512600Y470500D02*
G03X-1484600I14000J-25930D01*
G01X-1512600Y229200D02*
X-1484600D01*
G01X-1512600Y470500D02*
X-1484600D01*
G01X-1411000Y229200D02*
G03X-1383000I14000J-25930D01*
G01X-1411000Y470500D02*
G03X-1383000I14000J-25930D01*
G01X-1411000Y229200D02*
X-1383000D01*
G01X-1411000Y470500D02*
X-1383000D01*
G01X-1309400Y229200D02*
G03X-1281400I14000J-25930D01*
G01X-1309400Y470500D02*
G03X-1281400I14000J-25930D01*
G01X-1309400Y229200D02*
X-1281400D01*
G01X-1309400Y470500D02*
X-1281400D01*
G01X-1055400Y229200D02*
G03X-1027400I14000J-25930D01*
G01X-1055400Y470500D02*
G03X-1027400I14000J-25930D01*
G01X-1055400Y229200D02*
X-1027400D01*
G01X-1055400Y470500D02*
X-1027400D01*
G01X-953800Y229200D02*
G03X-925800I14000J-25930D01*
G01X-953800Y470500D02*
G03X-925800I14000J-25930D01*
G01X-953800Y229200D02*
X-925800D01*
G01X-953800Y470500D02*
X-925800D01*
G01X-852200Y229200D02*
G03X-824200I14000J-25930D01*
G01X-852200Y470500D02*
G03X-824200I14000J-25930D01*
G01X-852200Y229200D02*
X-824200D01*
G01X-852200Y470500D02*
X-824200D01*
G01X-750600Y229200D02*
G03X-722600I14000J-25930D01*
G01X-750600Y470500D02*
G03X-722600I14000J-25930D01*
G01X-750600Y229200D02*
X-722600D01*
G01X-750600Y470500D02*
X-722600D01*
G01X-649000Y229200D02*
G03X-621000I14000J-25930D01*
G01X-649000Y470500D02*
G03X-621000I14000J-25930D01*
G01X-649000Y229200D02*
X-621000D01*
G01X-649000Y470500D02*
X-621000D01*
G01X-547400Y229200D02*
G03X-519400I14000J-25930D01*
G01X-547400Y470500D02*
G03X-519400I14000J-25930D01*
G01X-547400Y229200D02*
X-519400D01*
G01X-547400Y470500D02*
X-519400D01*
G01X-445800Y229200D02*
G03X-417800I14000J-25930D01*
G01X-445800Y470500D02*
G03X-417800I14000J-25930D01*
G01X-445800Y229200D02*
X-417800D01*
G01X-445800Y470500D02*
X-417800D01*
G01X-344200Y229200D02*
G03X-316200I14000J-25930D01*
G01X-344200Y470500D02*
G03X-316200I14000J-25930D01*
G01X-344200Y229200D02*
X-316200D01*
G01X-344200Y470500D02*
X-316200D01*
G54D11*
G01X-1961300Y206400D02*
X-1950300D01*
G01Y447700D02*
X-1961300D01*
G01X-1859700Y206400D02*
X-1848700D01*
G01Y447700D02*
X-1859700D01*
G01X-1758100Y206400D02*
X-1747100D01*
G01Y447700D02*
X-1758100D01*
G01X-1656500Y206400D02*
X-1645500D01*
G01Y447700D02*
X-1656500D01*
G01X-1554900Y206400D02*
X-1543900D01*
G01Y447700D02*
X-1554900D01*
G01X-1453300Y206400D02*
X-1442300D01*
G01Y447700D02*
X-1453300D01*
G01X-1351700Y206400D02*
X-1340700D01*
G01Y447700D02*
X-1351700D01*
G01X-1250100Y206400D02*
X-1239100D01*
G01Y447700D02*
X-1250100D01*
G01X-985100Y206400D02*
X-996100D01*
G01X-985100Y447700D02*
X-996100D01*
G01X-883500Y206400D02*
X-894500D01*
G01X-883500Y447700D02*
X-894500D01*
G01X-781900Y206400D02*
X-792900D01*
G01X-781900Y447700D02*
X-792900D01*
G01X-680300Y206400D02*
X-691300D01*
G01X-680300Y447700D02*
X-691300D01*
G01X-578700Y206400D02*
X-589700D01*
G01X-578700Y447700D02*
X-589700D01*
G01X-477100Y206400D02*
X-488100D01*
G01X-477100Y447700D02*
X-488100D01*
G01X-375500Y206400D02*
X-386500D01*
G01X-375500Y447700D02*
X-386500D01*
G01X-273900Y206400D02*
X-284900D01*
G01X-273900Y447700D02*
X-284900D01*
G54D12*
G01X-1998130Y236900D02*
X-2010830Y240920D01*
X-1998130Y244950D01*
G01X-2010830Y250340D02*
X-1998130D01*
Y253550D01*
X-1998770Y254840D01*
X-1999610Y255810D01*
X-2000880Y256610D01*
X-2002360Y257250D01*
X-2004480Y257410D01*
X-2006600Y257250D01*
X-2008080Y256610D01*
X-2009350Y255810D01*
X-2010200Y254840D01*
X-2010830Y253550D01*
Y250340D01*
G01X-2000250Y263770D02*
X-1998980Y264730D01*
X-1998340Y265860D01*
X-1998130Y267150D01*
X-1998550Y268760D01*
X-1999610Y269880D01*
X-2000880Y270200D01*
X-2002150Y270040D01*
X-2003210Y269400D01*
X-2005330Y266180D01*
X-2006810Y264730D01*
X-2008930Y263770D01*
X-2010830Y263450D01*
Y270200D01*
G01Y281710D02*
X-1998130D01*
X-2007230Y275750D01*
Y283800D01*
G01X-1985430Y363900D02*
X-1998130Y367920D01*
X-1985430Y371950D01*
G01X-1998130Y377340D02*
X-1985430D01*
Y380550D01*
X-1986070Y381840D01*
X-1986910Y382810D01*
X-1988180Y383610D01*
X-1989660Y384250D01*
X-1991780Y384410D01*
X-1993900Y384250D01*
X-1995380Y383610D01*
X-1996650Y382810D01*
X-1997500Y381840D01*
X-1998130Y380550D01*
Y377340D01*
G01X-1995590Y390290D02*
X-1997070Y391250D01*
X-1997920Y392540D01*
X-1998130Y393990D01*
X-1997920Y395270D01*
X-1996860Y396560D01*
X-1995590Y397360D01*
X-1994320Y397520D01*
X-1992840Y397200D01*
X-1991780Y396080D01*
X-1991360Y394950D01*
Y393500D01*
G01Y394950D02*
X-1990720Y395920D01*
X-1989660Y396720D01*
X-1988390Y397040D01*
X-1987120Y396720D01*
X-1986070Y395920D01*
X-1985430Y394470D01*
X-1985640Y393020D01*
X-1986490Y391570D01*
G01X-1987550Y403720D02*
X-1986280Y404680D01*
X-1985640Y405810D01*
X-1985430Y407100D01*
X-1985850Y408710D01*
X-1986910Y409830D01*
X-1988180Y410150D01*
X-1989450Y409990D01*
X-1990510Y409350D01*
X-1992630Y406130D01*
X-1994110Y404680D01*
X-1996230Y403720D01*
X-1998130Y403400D01*
Y410150D01*
G01X-1960040Y231480D02*
X-1947340D01*
Y235500D01*
X-1947980Y236790D01*
X-1948820Y237590D01*
X-1950520Y237910D01*
X-1952210Y237590D01*
X-1953270Y236630D01*
X-1953900Y235500D01*
Y231480D01*
G01Y235500D02*
X-1960040Y237910D01*
G01X-1949460Y244590D02*
X-1948190Y245550D01*
X-1947550Y246680D01*
X-1947340Y247970D01*
X-1947760Y249580D01*
X-1948820Y250700D01*
X-1950090Y251020D01*
X-1951360Y250860D01*
X-1952420Y250220D01*
X-1954540Y247000D01*
X-1956020Y245550D01*
X-1958140Y244590D01*
X-1960040Y244270D01*
Y251020D01*
G01Y262530D02*
X-1947340D01*
X-1956440Y256570D01*
Y264620D01*
G01X-1960040Y390230D02*
X-1947340D01*
Y394250D01*
X-1947980Y395540D01*
X-1948820Y396340D01*
X-1950520Y396660D01*
X-1952210Y396340D01*
X-1953270Y395380D01*
X-1953900Y394250D01*
Y390230D01*
G01Y394250D02*
X-1960040Y396660D01*
G01X-1957500Y402860D02*
X-1958980Y403820D01*
X-1959830Y405110D01*
X-1960040Y406560D01*
X-1959830Y407840D01*
X-1958770Y409130D01*
X-1957500Y409930D01*
X-1956230Y410090D01*
X-1954750Y409770D01*
X-1953690Y408650D01*
X-1953270Y407520D01*
Y406070D01*
G01Y407520D02*
X-1952630Y408490D01*
X-1951570Y409290D01*
X-1950300Y409610D01*
X-1949030Y409290D01*
X-1947980Y408490D01*
X-1947340Y407040D01*
X-1947550Y405590D01*
X-1948400Y404140D01*
G01X-1949460Y416290D02*
X-1948190Y417250D01*
X-1947550Y418380D01*
X-1947340Y419670D01*
X-1947760Y421280D01*
X-1948820Y422400D01*
X-1950090Y422720D01*
X-1951360Y422560D01*
X-1952420Y421920D01*
X-1954540Y418700D01*
X-1956020Y417250D01*
X-1958140Y416290D01*
X-1960040Y415970D01*
Y422720D01*
G01X-1909230Y236900D02*
X-1921930Y240920D01*
X-1909230Y244950D01*
G01X-1921930Y250340D02*
X-1909230D01*
Y253550D01*
X-1909870Y254840D01*
X-1910710Y255810D01*
X-1911980Y256610D01*
X-1913460Y257250D01*
X-1915580Y257410D01*
X-1917700Y257250D01*
X-1919180Y256610D01*
X-1920450Y255810D01*
X-1921300Y254840D01*
X-1921930Y253550D01*
Y250340D01*
G01X-1911350Y263770D02*
X-1910080Y264730D01*
X-1909440Y265860D01*
X-1909230Y267150D01*
X-1909650Y268760D01*
X-1910710Y269880D01*
X-1911980Y270200D01*
X-1913250Y270040D01*
X-1914310Y269400D01*
X-1916430Y266180D01*
X-1917910Y264730D01*
X-1920030Y263770D01*
X-1921930Y263450D01*
Y270200D01*
G01X-1919390Y276240D02*
X-1920870Y277200D01*
X-1921720Y278490D01*
X-1921930Y279940D01*
X-1921720Y281220D01*
X-1920660Y282510D01*
X-1919390Y283310D01*
X-1918120Y283470D01*
X-1916640Y283150D01*
X-1915580Y282030D01*
X-1915160Y280900D01*
Y279450D01*
G01Y280900D02*
X-1914520Y281870D01*
X-1913460Y282670D01*
X-1912190Y282990D01*
X-1910920Y282670D01*
X-1909870Y281870D01*
X-1909230Y280420D01*
X-1909440Y278970D01*
X-1910290Y277520D01*
G01X-1883830Y363900D02*
X-1896530Y367920D01*
X-1883830Y371950D01*
G01X-1896530Y377340D02*
X-1883830D01*
Y380550D01*
X-1884470Y381840D01*
X-1885310Y382810D01*
X-1886580Y383610D01*
X-1888060Y384250D01*
X-1890180Y384410D01*
X-1892300Y384250D01*
X-1893780Y383610D01*
X-1895050Y382810D01*
X-1895900Y381840D01*
X-1896530Y380550D01*
Y377340D01*
G01X-1893990Y390290D02*
X-1895470Y391250D01*
X-1896320Y392540D01*
X-1896530Y393990D01*
X-1896320Y395270D01*
X-1895260Y396560D01*
X-1893990Y397360D01*
X-1892720Y397520D01*
X-1891240Y397200D01*
X-1890180Y396080D01*
X-1889760Y394950D01*
Y393500D01*
G01Y394950D02*
X-1889120Y395920D01*
X-1888060Y396720D01*
X-1886790Y397040D01*
X-1885520Y396720D01*
X-1884470Y395920D01*
X-1883830Y394470D01*
X-1884040Y393020D01*
X-1884890Y391570D01*
G01X-1896530Y406770D02*
X-1883830D01*
X-1886370Y404840D01*
G01X-1896530D02*
Y408700D01*
G01X-1858440Y231480D02*
X-1845740D01*
Y235500D01*
X-1846380Y236790D01*
X-1847220Y237590D01*
X-1848920Y237910D01*
X-1850610Y237590D01*
X-1851670Y236630D01*
X-1852300Y235500D01*
Y231480D01*
G01Y235500D02*
X-1858440Y237910D01*
G01X-1847860Y244590D02*
X-1846590Y245550D01*
X-1845950Y246680D01*
X-1845740Y247970D01*
X-1846160Y249580D01*
X-1847220Y250700D01*
X-1848490Y251020D01*
X-1849760Y250860D01*
X-1850820Y250220D01*
X-1852940Y247000D01*
X-1854420Y245550D01*
X-1856540Y244590D01*
X-1858440Y244270D01*
Y251020D01*
G01X-1855900Y257060D02*
X-1857380Y258020D01*
X-1858230Y259310D01*
X-1858440Y260760D01*
X-1858230Y262040D01*
X-1857170Y263330D01*
X-1855900Y264130D01*
X-1854630Y264290D01*
X-1853150Y263970D01*
X-1852090Y262850D01*
X-1851670Y261720D01*
Y260270D01*
G01Y261720D02*
X-1851030Y262690D01*
X-1849970Y263490D01*
X-1848700Y263810D01*
X-1847430Y263490D01*
X-1846380Y262690D01*
X-1845740Y261240D01*
X-1845950Y259790D01*
X-1846800Y258340D01*
G01X-1858440Y390230D02*
X-1845740D01*
Y394250D01*
X-1846380Y395540D01*
X-1847220Y396340D01*
X-1848920Y396660D01*
X-1850610Y396340D01*
X-1851670Y395380D01*
X-1852300Y394250D01*
Y390230D01*
G01Y394250D02*
X-1858440Y396660D01*
G01X-1855900Y402860D02*
X-1857380Y403820D01*
X-1858230Y405110D01*
X-1858440Y406560D01*
X-1858230Y407840D01*
X-1857170Y409130D01*
X-1855900Y409930D01*
X-1854630Y410090D01*
X-1853150Y409770D01*
X-1852090Y408650D01*
X-1851670Y407520D01*
Y406070D01*
G01Y407520D02*
X-1851030Y408490D01*
X-1849970Y409290D01*
X-1848700Y409610D01*
X-1847430Y409290D01*
X-1846380Y408490D01*
X-1845740Y407040D01*
X-1845950Y405590D01*
X-1846800Y404140D01*
G01X-1858440Y419340D02*
X-1845740D01*
X-1848280Y417410D01*
G01X-1858440D02*
Y421270D01*
G01X-1807630Y236900D02*
X-1820330Y240920D01*
X-1807630Y244950D01*
G01X-1820330Y250340D02*
X-1807630D01*
Y253550D01*
X-1808270Y254840D01*
X-1809110Y255810D01*
X-1810380Y256610D01*
X-1811860Y257250D01*
X-1813980Y257410D01*
X-1816100Y257250D01*
X-1817580Y256610D01*
X-1818850Y255810D01*
X-1819700Y254840D01*
X-1820330Y253550D01*
Y250340D01*
G01X-1809750Y263770D02*
X-1808480Y264730D01*
X-1807840Y265860D01*
X-1807630Y267150D01*
X-1808050Y268760D01*
X-1809110Y269880D01*
X-1810380Y270200D01*
X-1811650Y270040D01*
X-1812710Y269400D01*
X-1814830Y266180D01*
X-1816310Y264730D01*
X-1818430Y263770D01*
X-1820330Y263450D01*
Y270200D01*
G01X-1809750Y276720D02*
X-1808480Y277680D01*
X-1807840Y278810D01*
X-1807630Y280100D01*
X-1808050Y281710D01*
X-1809110Y282830D01*
X-1810380Y283150D01*
X-1811650Y282990D01*
X-1812710Y282350D01*
X-1814830Y279130D01*
X-1816310Y277680D01*
X-1818430Y276720D01*
X-1820330Y276400D01*
Y283150D01*
G01X-1782240Y363900D02*
X-1794940Y367920D01*
X-1782240Y371950D01*
G01X-1794940Y377340D02*
X-1782240D01*
Y380550D01*
X-1782880Y381840D01*
X-1783720Y382810D01*
X-1784990Y383610D01*
X-1786470Y384250D01*
X-1788590Y384410D01*
X-1790710Y384250D01*
X-1792190Y383610D01*
X-1793460Y382810D01*
X-1794310Y381840D01*
X-1794940Y380550D01*
Y377340D01*
G01X-1792400Y390290D02*
X-1793880Y391250D01*
X-1794730Y392540D01*
X-1794940Y393990D01*
X-1794730Y395270D01*
X-1793670Y396560D01*
X-1792400Y397360D01*
X-1791130Y397520D01*
X-1789650Y397200D01*
X-1788590Y396080D01*
X-1788170Y394950D01*
Y393500D01*
G01Y394950D02*
X-1787530Y395920D01*
X-1786470Y396720D01*
X-1785200Y397040D01*
X-1783930Y396720D01*
X-1782880Y395920D01*
X-1782240Y394470D01*
X-1782450Y393020D01*
X-1783300Y391570D01*
G01X-1782240Y406770D02*
X-1782660Y405490D01*
X-1783720Y404520D01*
X-1784990Y403880D01*
X-1786690Y403400D01*
X-1788590Y403240D01*
X-1790500Y403400D01*
X-1792190Y403880D01*
X-1793460Y404520D01*
X-1794520Y405490D01*
X-1794940Y406770D01*
X-1794520Y408060D01*
X-1793460Y409030D01*
X-1792190Y409670D01*
X-1790500Y410150D01*
X-1788590Y410310D01*
X-1786690Y410150D01*
X-1784990Y409670D01*
X-1783720Y409030D01*
X-1782660Y408060D01*
X-1782240Y406770D01*
G01X-1756840Y231480D02*
X-1744140D01*
Y235500D01*
X-1744780Y236790D01*
X-1745620Y237590D01*
X-1747320Y237910D01*
X-1749010Y237590D01*
X-1750070Y236630D01*
X-1750700Y235500D01*
Y231480D01*
G01Y235500D02*
X-1756840Y237910D01*
G01X-1746260Y244590D02*
X-1744990Y245550D01*
X-1744350Y246680D01*
X-1744140Y247970D01*
X-1744560Y249580D01*
X-1745620Y250700D01*
X-1746890Y251020D01*
X-1748160Y250860D01*
X-1749220Y250220D01*
X-1751340Y247000D01*
X-1752820Y245550D01*
X-1754940Y244590D01*
X-1756840Y244270D01*
Y251020D01*
G01X-1746260Y257540D02*
X-1744990Y258500D01*
X-1744350Y259630D01*
X-1744140Y260920D01*
X-1744560Y262530D01*
X-1745620Y263650D01*
X-1746890Y263970D01*
X-1748160Y263810D01*
X-1749220Y263170D01*
X-1751340Y259950D01*
X-1752820Y258500D01*
X-1754940Y257540D01*
X-1756840Y257220D01*
Y263970D01*
G01Y390230D02*
X-1744140D01*
Y394250D01*
X-1744780Y395540D01*
X-1745620Y396340D01*
X-1747320Y396660D01*
X-1749010Y396340D01*
X-1750070Y395380D01*
X-1750700Y394250D01*
Y390230D01*
G01Y394250D02*
X-1756840Y396660D01*
G01X-1754300Y402860D02*
X-1755780Y403820D01*
X-1756630Y405110D01*
X-1756840Y406560D01*
X-1756630Y407840D01*
X-1755570Y409130D01*
X-1754300Y409930D01*
X-1753030Y410090D01*
X-1751550Y409770D01*
X-1750490Y408650D01*
X-1750070Y407520D01*
Y406070D01*
G01Y407520D02*
X-1749430Y408490D01*
X-1748370Y409290D01*
X-1747100Y409610D01*
X-1745830Y409290D01*
X-1744780Y408490D01*
X-1744140Y407040D01*
X-1744350Y405590D01*
X-1745200Y404140D01*
G01X-1744140Y419340D02*
X-1744560Y418060D01*
X-1745620Y417090D01*
X-1746890Y416450D01*
X-1748590Y415970D01*
X-1750490Y415810D01*
X-1752400Y415970D01*
X-1754090Y416450D01*
X-1755360Y417090D01*
X-1756420Y418060D01*
X-1756840Y419340D01*
X-1756420Y420630D01*
X-1755360Y421600D01*
X-1754090Y422240D01*
X-1752400Y422720D01*
X-1750490Y422880D01*
X-1748590Y422720D01*
X-1746890Y422240D01*
X-1745620Y421600D01*
X-1744560Y420630D01*
X-1744140Y419340D01*
G01X-1706030Y236900D02*
X-1718730Y240920D01*
X-1706030Y244950D01*
G01X-1718730Y250340D02*
X-1706030D01*
Y253550D01*
X-1706670Y254840D01*
X-1707510Y255810D01*
X-1708780Y256610D01*
X-1710260Y257250D01*
X-1712380Y257410D01*
X-1714500Y257250D01*
X-1715980Y256610D01*
X-1717250Y255810D01*
X-1718100Y254840D01*
X-1718730Y253550D01*
Y250340D01*
G01X-1708150Y263770D02*
X-1706880Y264730D01*
X-1706240Y265860D01*
X-1706030Y267150D01*
X-1706450Y268760D01*
X-1707510Y269880D01*
X-1708780Y270200D01*
X-1710050Y270040D01*
X-1711110Y269400D01*
X-1713230Y266180D01*
X-1714710Y264730D01*
X-1716830Y263770D01*
X-1718730Y263450D01*
Y270200D01*
G01Y279770D02*
X-1706030D01*
X-1708570Y277840D01*
G01X-1718730D02*
Y281700D01*
G01X-1680640Y363900D02*
X-1693340Y367920D01*
X-1680640Y371950D01*
G01X-1693340Y377340D02*
X-1680640D01*
Y380550D01*
X-1681280Y381840D01*
X-1682120Y382810D01*
X-1683390Y383610D01*
X-1684870Y384250D01*
X-1686990Y384410D01*
X-1689110Y384250D01*
X-1690590Y383610D01*
X-1691860Y382810D01*
X-1692710Y381840D01*
X-1693340Y380550D01*
Y377340D01*
G01X-1682760Y390770D02*
X-1681490Y391730D01*
X-1680850Y392860D01*
X-1680640Y394150D01*
X-1681060Y395760D01*
X-1682120Y396880D01*
X-1683390Y397200D01*
X-1684660Y397040D01*
X-1685720Y396400D01*
X-1687840Y393180D01*
X-1689320Y391730D01*
X-1691440Y390770D01*
X-1693340Y390450D01*
Y397200D01*
G01X-1691860Y404040D02*
X-1692920Y405170D01*
X-1693340Y406450D01*
X-1692920Y407740D01*
X-1691650Y408870D01*
X-1689740Y409670D01*
X-1687840Y409990D01*
X-1685510D01*
X-1683600Y409670D01*
X-1681910Y408870D01*
X-1681060Y407900D01*
X-1680640Y406770D01*
X-1681060Y405490D01*
X-1681910Y404520D01*
X-1683180Y403880D01*
X-1684870Y403560D01*
X-1686350Y403880D01*
X-1687840Y404680D01*
X-1688680Y405650D01*
X-1688900Y406770D01*
X-1688470Y408060D01*
X-1687410Y409030D01*
X-1685510Y409990D01*
G01X-1655240Y231480D02*
X-1642540D01*
Y235500D01*
X-1643180Y236790D01*
X-1644020Y237590D01*
X-1645720Y237910D01*
X-1647410Y237590D01*
X-1648470Y236630D01*
X-1649100Y235500D01*
Y231480D01*
G01Y235500D02*
X-1655240Y237910D01*
G01X-1644660Y244590D02*
X-1643390Y245550D01*
X-1642750Y246680D01*
X-1642540Y247970D01*
X-1642960Y249580D01*
X-1644020Y250700D01*
X-1645290Y251020D01*
X-1646560Y250860D01*
X-1647620Y250220D01*
X-1649740Y247000D01*
X-1651220Y245550D01*
X-1653340Y244590D01*
X-1655240Y244270D01*
Y251020D01*
G01Y260590D02*
X-1642540D01*
X-1645080Y258660D01*
G01X-1655240D02*
Y262520D01*
G01X-1655230Y390220D02*
X-1642530D01*
Y394240D01*
X-1643170Y395530D01*
X-1644010Y396330D01*
X-1645710Y396650D01*
X-1647400Y396330D01*
X-1648460Y395370D01*
X-1649090Y394240D01*
Y390220D01*
G01Y394240D02*
X-1655230Y396650D01*
G01X-1644650Y403330D02*
X-1643380Y404290D01*
X-1642740Y405420D01*
X-1642530Y406710D01*
X-1642950Y408320D01*
X-1644010Y409440D01*
X-1645280Y409760D01*
X-1646550Y409600D01*
X-1647610Y408960D01*
X-1649730Y405740D01*
X-1651210Y404290D01*
X-1653330Y403330D01*
X-1655230Y403010D01*
Y409760D01*
G01X-1653750Y416600D02*
X-1654810Y417730D01*
X-1655230Y419010D01*
X-1654810Y420300D01*
X-1653540Y421430D01*
X-1651630Y422230D01*
X-1649730Y422550D01*
X-1647400D01*
X-1645490Y422230D01*
X-1643800Y421430D01*
X-1642950Y420460D01*
X-1642530Y419330D01*
X-1642950Y418050D01*
X-1643800Y417080D01*
X-1645070Y416440D01*
X-1646760Y416120D01*
X-1648240Y416440D01*
X-1649730Y417240D01*
X-1650570Y418210D01*
X-1650790Y419330D01*
X-1650360Y420620D01*
X-1649300Y421590D01*
X-1647400Y422550D01*
G01X-1604430Y236900D02*
X-1617130Y240920D01*
X-1604430Y244950D01*
G01X-1617130Y250340D02*
X-1604430D01*
Y253550D01*
X-1605070Y254840D01*
X-1605910Y255810D01*
X-1607180Y256610D01*
X-1608660Y257250D01*
X-1610780Y257410D01*
X-1612900Y257250D01*
X-1614380Y256610D01*
X-1615650Y255810D01*
X-1616500Y254840D01*
X-1617130Y253550D01*
Y250340D01*
G01X-1606550Y263770D02*
X-1605280Y264730D01*
X-1604640Y265860D01*
X-1604430Y267150D01*
X-1604850Y268760D01*
X-1605910Y269880D01*
X-1607180Y270200D01*
X-1608450Y270040D01*
X-1609510Y269400D01*
X-1611630Y266180D01*
X-1613110Y264730D01*
X-1615230Y263770D01*
X-1617130Y263450D01*
Y270200D01*
G01X-1604430Y279770D02*
X-1604850Y278490D01*
X-1605910Y277520D01*
X-1607180Y276880D01*
X-1608880Y276400D01*
X-1610780Y276240D01*
X-1612690Y276400D01*
X-1614380Y276880D01*
X-1615650Y277520D01*
X-1616710Y278490D01*
X-1617130Y279770D01*
X-1616710Y281060D01*
X-1615650Y282030D01*
X-1614380Y282670D01*
X-1612690Y283150D01*
X-1610780Y283310D01*
X-1608880Y283150D01*
X-1607180Y282670D01*
X-1605910Y282030D01*
X-1604850Y281060D01*
X-1604430Y279770D01*
G01X-1579040Y363900D02*
X-1591740Y367920D01*
X-1579040Y371950D01*
G01X-1591740Y377340D02*
X-1579040D01*
Y380550D01*
X-1579680Y381840D01*
X-1580520Y382810D01*
X-1581790Y383610D01*
X-1583270Y384250D01*
X-1585390Y384410D01*
X-1587510Y384250D01*
X-1588990Y383610D01*
X-1590260Y382810D01*
X-1591110Y381840D01*
X-1591740Y380550D01*
Y377340D01*
G01X-1581160Y390770D02*
X-1579890Y391730D01*
X-1579250Y392860D01*
X-1579040Y394150D01*
X-1579460Y395760D01*
X-1580520Y396880D01*
X-1581790Y397200D01*
X-1583060Y397040D01*
X-1584120Y396400D01*
X-1586240Y393180D01*
X-1587720Y391730D01*
X-1589840Y390770D01*
X-1591740Y390450D01*
Y397200D01*
G01Y406770D02*
X-1591530Y407900D01*
X-1590890Y409190D01*
X-1589840Y409990D01*
X-1588350Y410310D01*
X-1586870Y409990D01*
X-1585600Y409030D01*
X-1584970Y407580D01*
Y405970D01*
X-1584540Y405010D01*
X-1583490Y404200D01*
X-1582000Y403880D01*
X-1580520Y404360D01*
X-1579460Y405490D01*
X-1579040Y406770D01*
X-1579460Y408060D01*
X-1580520Y409190D01*
X-1582000Y409670D01*
X-1583490Y409350D01*
X-1584540Y408540D01*
X-1584970Y407580D01*
Y405970D01*
X-1585600Y404520D01*
X-1586870Y403560D01*
X-1588350Y403240D01*
X-1589840Y403560D01*
X-1590890Y404360D01*
X-1591530Y405650D01*
X-1591740Y406770D01*
G01X-1553640Y231480D02*
X-1540940D01*
Y235500D01*
X-1541580Y236790D01*
X-1542420Y237590D01*
X-1544120Y237910D01*
X-1545810Y237590D01*
X-1546870Y236630D01*
X-1547500Y235500D01*
Y231480D01*
G01Y235500D02*
X-1553640Y237910D01*
G01X-1543060Y244590D02*
X-1541790Y245550D01*
X-1541150Y246680D01*
X-1540940Y247970D01*
X-1541360Y249580D01*
X-1542420Y250700D01*
X-1543690Y251020D01*
X-1544960Y250860D01*
X-1546020Y250220D01*
X-1548140Y247000D01*
X-1549620Y245550D01*
X-1551740Y244590D01*
X-1553640Y244270D01*
Y251020D01*
G01X-1540940Y260590D02*
X-1541360Y259310D01*
X-1542420Y258340D01*
X-1543690Y257700D01*
X-1545390Y257220D01*
X-1547290Y257060D01*
X-1549200Y257220D01*
X-1550890Y257700D01*
X-1552160Y258340D01*
X-1553220Y259310D01*
X-1553640Y260590D01*
X-1553220Y261880D01*
X-1552160Y262850D01*
X-1550890Y263490D01*
X-1549200Y263970D01*
X-1547290Y264130D01*
X-1545390Y263970D01*
X-1543690Y263490D01*
X-1542420Y262850D01*
X-1541360Y261880D01*
X-1540940Y260590D01*
G01X-1553630Y390220D02*
X-1540930D01*
Y394240D01*
X-1541570Y395530D01*
X-1542410Y396330D01*
X-1544110Y396650D01*
X-1545800Y396330D01*
X-1546860Y395370D01*
X-1547490Y394240D01*
Y390220D01*
G01Y394240D02*
X-1553630Y396650D01*
G01X-1543050Y403330D02*
X-1541780Y404290D01*
X-1541140Y405420D01*
X-1540930Y406710D01*
X-1541350Y408320D01*
X-1542410Y409440D01*
X-1543680Y409760D01*
X-1544950Y409600D01*
X-1546010Y408960D01*
X-1548130Y405740D01*
X-1549610Y404290D01*
X-1551730Y403330D01*
X-1553630Y403010D01*
Y409760D01*
G01Y419330D02*
X-1553420Y420460D01*
X-1552780Y421750D01*
X-1551730Y422550D01*
X-1550240Y422870D01*
X-1548760Y422550D01*
X-1547490Y421590D01*
X-1546860Y420140D01*
Y418530D01*
X-1546430Y417570D01*
X-1545380Y416760D01*
X-1543890Y416440D01*
X-1542410Y416920D01*
X-1541350Y418050D01*
X-1540930Y419330D01*
X-1541350Y420620D01*
X-1542410Y421750D01*
X-1543890Y422230D01*
X-1545380Y421910D01*
X-1546430Y421100D01*
X-1546860Y420140D01*
Y418530D01*
X-1547490Y417080D01*
X-1548760Y416120D01*
X-1550240Y415800D01*
X-1551730Y416120D01*
X-1552780Y416920D01*
X-1553420Y418210D01*
X-1553630Y419330D01*
G01X-1502830Y236900D02*
X-1515530Y240920D01*
X-1502830Y244950D01*
G01X-1515530Y250340D02*
X-1502830D01*
Y253550D01*
X-1503470Y254840D01*
X-1504310Y255810D01*
X-1505580Y256610D01*
X-1507060Y257250D01*
X-1509180Y257410D01*
X-1511300Y257250D01*
X-1512780Y256610D01*
X-1514050Y255810D01*
X-1514900Y254840D01*
X-1515530Y253550D01*
Y250340D01*
G01Y266820D02*
X-1502830D01*
X-1505370Y264890D01*
G01X-1515530D02*
Y268750D01*
G01X-1514050Y277040D02*
X-1515110Y278170D01*
X-1515530Y279450D01*
X-1515110Y280740D01*
X-1513840Y281870D01*
X-1511930Y282670D01*
X-1510030Y282990D01*
X-1507700D01*
X-1505790Y282670D01*
X-1504100Y281870D01*
X-1503250Y280900D01*
X-1502830Y279770D01*
X-1503250Y278490D01*
X-1504100Y277520D01*
X-1505370Y276880D01*
X-1507060Y276560D01*
X-1508540Y276880D01*
X-1510030Y277680D01*
X-1510870Y278650D01*
X-1511090Y279770D01*
X-1510660Y281060D01*
X-1509600Y282030D01*
X-1507700Y282990D01*
G01X-1477440Y363900D02*
X-1490140Y367920D01*
X-1477440Y371950D01*
G01X-1490140Y377340D02*
X-1477440D01*
Y380550D01*
X-1478080Y381840D01*
X-1478920Y382810D01*
X-1480190Y383610D01*
X-1481670Y384250D01*
X-1483790Y384410D01*
X-1485910Y384250D01*
X-1487390Y383610D01*
X-1488660Y382810D01*
X-1489510Y381840D01*
X-1490140Y380550D01*
Y377340D01*
G01X-1479560Y390770D02*
X-1478290Y391730D01*
X-1477650Y392860D01*
X-1477440Y394150D01*
X-1477860Y395760D01*
X-1478920Y396880D01*
X-1480190Y397200D01*
X-1481460Y397040D01*
X-1482520Y396400D01*
X-1484640Y393180D01*
X-1486120Y391730D01*
X-1488240Y390770D01*
X-1490140Y390450D01*
Y397200D01*
G01Y406450D02*
X-1487390Y406770D01*
X-1485060Y407260D01*
X-1482940Y407900D01*
X-1480620Y408710D01*
X-1477440Y409990D01*
Y403560D01*
G01X-1452040Y231480D02*
X-1439340D01*
Y235500D01*
X-1439980Y236790D01*
X-1440820Y237590D01*
X-1442520Y237910D01*
X-1444210Y237590D01*
X-1445270Y236630D01*
X-1445900Y235500D01*
Y231480D01*
G01Y235500D02*
X-1452040Y237910D01*
G01Y247640D02*
X-1439340D01*
X-1441880Y245710D01*
G01X-1452040D02*
Y249570D01*
G01X-1450560Y257860D02*
X-1451620Y258990D01*
X-1452040Y260270D01*
X-1451620Y261560D01*
X-1450350Y262690D01*
X-1448440Y263490D01*
X-1446540Y263810D01*
X-1444210D01*
X-1442300Y263490D01*
X-1440610Y262690D01*
X-1439760Y261720D01*
X-1439340Y260590D01*
X-1439760Y259310D01*
X-1440610Y258340D01*
X-1441880Y257700D01*
X-1443570Y257380D01*
X-1445050Y257700D01*
X-1446540Y258500D01*
X-1447380Y259470D01*
X-1447600Y260590D01*
X-1447170Y261880D01*
X-1446110Y262850D01*
X-1444210Y263810D01*
G01X-1452030Y390220D02*
X-1439330D01*
Y394240D01*
X-1439970Y395530D01*
X-1440810Y396330D01*
X-1442510Y396650D01*
X-1444200Y396330D01*
X-1445260Y395370D01*
X-1445890Y394240D01*
Y390220D01*
G01Y394240D02*
X-1452030Y396650D01*
G01X-1441450Y403330D02*
X-1440180Y404290D01*
X-1439540Y405420D01*
X-1439330Y406710D01*
X-1439750Y408320D01*
X-1440810Y409440D01*
X-1442080Y409760D01*
X-1443350Y409600D01*
X-1444410Y408960D01*
X-1446530Y405740D01*
X-1448010Y404290D01*
X-1450130Y403330D01*
X-1452030Y403010D01*
Y409760D01*
G01Y419010D02*
X-1449280Y419330D01*
X-1446950Y419820D01*
X-1444830Y420460D01*
X-1442510Y421270D01*
X-1439330Y422550D01*
Y416120D01*
G01X-1407580Y236900D02*
X-1420280Y240920D01*
X-1407580Y244950D01*
G01X-1420280Y250340D02*
X-1407580D01*
Y253550D01*
X-1408220Y254840D01*
X-1409060Y255810D01*
X-1410330Y256610D01*
X-1411810Y257250D01*
X-1413930Y257410D01*
X-1416050Y257250D01*
X-1417530Y256610D01*
X-1418800Y255810D01*
X-1419650Y254840D01*
X-1420280Y253550D01*
Y250340D01*
G01Y266820D02*
X-1407580D01*
X-1410120Y264890D01*
G01X-1420280D02*
Y268750D01*
G01Y279770D02*
X-1420070Y280900D01*
X-1419430Y282190D01*
X-1418380Y282990D01*
X-1416890Y283310D01*
X-1415410Y282990D01*
X-1414140Y282030D01*
X-1413510Y280580D01*
Y278970D01*
X-1413080Y278010D01*
X-1412030Y277200D01*
X-1410540Y276880D01*
X-1409060Y277360D01*
X-1408000Y278490D01*
X-1407580Y279770D01*
X-1408000Y281060D01*
X-1409060Y282190D01*
X-1410540Y282670D01*
X-1412030Y282350D01*
X-1413080Y281540D01*
X-1413510Y280580D01*
Y278970D01*
X-1414140Y277520D01*
X-1415410Y276560D01*
X-1416890Y276240D01*
X-1418380Y276560D01*
X-1419430Y277360D01*
X-1420070Y278650D01*
X-1420280Y279770D01*
G01X-1375830Y363900D02*
X-1388530Y367920D01*
X-1375830Y371950D01*
G01X-1388530Y377340D02*
X-1375830D01*
Y380550D01*
X-1376470Y381840D01*
X-1377310Y382810D01*
X-1378580Y383610D01*
X-1380060Y384250D01*
X-1382180Y384410D01*
X-1384300Y384250D01*
X-1385780Y383610D01*
X-1387050Y382810D01*
X-1387900Y381840D01*
X-1388530Y380550D01*
Y377340D01*
G01X-1377950Y390770D02*
X-1376680Y391730D01*
X-1376040Y392860D01*
X-1375830Y394150D01*
X-1376250Y395760D01*
X-1377310Y396880D01*
X-1378580Y397200D01*
X-1379850Y397040D01*
X-1380910Y396400D01*
X-1383030Y393180D01*
X-1384510Y391730D01*
X-1386630Y390770D01*
X-1388530Y390450D01*
Y397200D01*
G01X-1383240Y403720D02*
X-1381760Y404840D01*
X-1380910Y405810D01*
X-1380490Y407100D01*
X-1380910Y408220D01*
X-1381760Y409030D01*
X-1383030Y409670D01*
X-1384510Y409830D01*
X-1385780Y409670D01*
X-1387050Y409030D01*
X-1388110Y408060D01*
X-1388530Y406940D01*
X-1388110Y405650D01*
X-1386840Y404520D01*
X-1384930Y403880D01*
X-1382820Y403720D01*
X-1380060Y404040D01*
X-1378580Y404520D01*
X-1377100Y405330D01*
X-1376040Y406450D01*
X-1375830Y407580D01*
X-1376250Y408710D01*
X-1377310Y409510D01*
G01X-1350440Y231480D02*
X-1337740D01*
Y235500D01*
X-1338380Y236790D01*
X-1339220Y237590D01*
X-1340920Y237910D01*
X-1342610Y237590D01*
X-1343670Y236630D01*
X-1344300Y235500D01*
Y231480D01*
G01Y235500D02*
X-1350440Y237910D01*
G01Y247640D02*
X-1337740D01*
X-1340280Y245710D01*
G01X-1350440D02*
Y249570D01*
G01Y260590D02*
X-1350230Y261720D01*
X-1349590Y263010D01*
X-1348540Y263810D01*
X-1347050Y264130D01*
X-1345570Y263810D01*
X-1344300Y262850D01*
X-1343670Y261400D01*
Y259790D01*
X-1343240Y258830D01*
X-1342190Y258020D01*
X-1340700Y257700D01*
X-1339220Y258180D01*
X-1338160Y259310D01*
X-1337740Y260590D01*
X-1338160Y261880D01*
X-1339220Y263010D01*
X-1340700Y263490D01*
X-1342190Y263170D01*
X-1343240Y262360D01*
X-1343670Y261400D01*
Y259790D01*
X-1344300Y258340D01*
X-1345570Y257380D01*
X-1347050Y257060D01*
X-1348540Y257380D01*
X-1349590Y258180D01*
X-1350230Y259470D01*
X-1350440Y260590D01*
G01X-1356780Y390220D02*
X-1344080D01*
Y394240D01*
X-1344720Y395530D01*
X-1345560Y396330D01*
X-1347260Y396650D01*
X-1348950Y396330D01*
X-1350010Y395370D01*
X-1350640Y394240D01*
Y390220D01*
G01Y394240D02*
X-1356780Y396650D01*
G01X-1346200Y403330D02*
X-1344930Y404290D01*
X-1344290Y405420D01*
X-1344080Y406710D01*
X-1344500Y408320D01*
X-1345560Y409440D01*
X-1346830Y409760D01*
X-1348100Y409600D01*
X-1349160Y408960D01*
X-1351280Y405740D01*
X-1352760Y404290D01*
X-1354880Y403330D01*
X-1356780Y403010D01*
Y409760D01*
G01X-1351490Y416280D02*
X-1350010Y417400D01*
X-1349160Y418370D01*
X-1348740Y419660D01*
X-1349160Y420780D01*
X-1350010Y421590D01*
X-1351280Y422230D01*
X-1352760Y422390D01*
X-1354030Y422230D01*
X-1355300Y421590D01*
X-1356360Y420620D01*
X-1356780Y419500D01*
X-1356360Y418210D01*
X-1355090Y417080D01*
X-1353180Y416440D01*
X-1351070Y416280D01*
X-1348310Y416600D01*
X-1346830Y417080D01*
X-1345350Y417890D01*
X-1344290Y419010D01*
X-1344080Y420140D01*
X-1344500Y421270D01*
X-1345560Y422070D01*
G01X-1305980Y236900D02*
X-1318680Y240920D01*
X-1305980Y244950D01*
G01X-1318680Y250340D02*
X-1305980D01*
Y253550D01*
X-1306620Y254840D01*
X-1307460Y255810D01*
X-1308730Y256610D01*
X-1310210Y257250D01*
X-1312330Y257410D01*
X-1314450Y257250D01*
X-1315930Y256610D01*
X-1317200Y255810D01*
X-1318050Y254840D01*
X-1318680Y253550D01*
Y250340D01*
G01Y266820D02*
X-1305980D01*
X-1308520Y264890D01*
G01X-1318680D02*
Y268750D01*
G01Y279450D02*
X-1315930Y279770D01*
X-1313600Y280260D01*
X-1311480Y280900D01*
X-1309160Y281710D01*
X-1305980Y282990D01*
Y276560D01*
G01X-1274230Y357550D02*
X-1286930Y361570D01*
X-1274230Y365600D01*
G01X-1286930Y370990D02*
X-1274230D01*
Y374200D01*
X-1274870Y375490D01*
X-1275710Y376460D01*
X-1276980Y377260D01*
X-1278460Y377900D01*
X-1280580Y378060D01*
X-1282700Y377900D01*
X-1284180Y377260D01*
X-1285450Y376460D01*
X-1286300Y375490D01*
X-1286930Y374200D01*
Y370990D01*
G01X-1276350Y384420D02*
X-1275080Y385380D01*
X-1274440Y386510D01*
X-1274230Y387800D01*
X-1274650Y389410D01*
X-1275710Y390530D01*
X-1276980Y390850D01*
X-1278250Y390690D01*
X-1279310Y390050D01*
X-1281430Y386830D01*
X-1282910Y385380D01*
X-1285030Y384420D01*
X-1286930Y384100D01*
Y390850D01*
G01X-1285030Y396890D02*
X-1286080Y397850D01*
X-1286720Y398980D01*
X-1286930Y400420D01*
X-1286510Y401870D01*
X-1285660Y403000D01*
X-1284180Y403800D01*
X-1282490Y403960D01*
X-1280790Y403640D01*
X-1279730Y402840D01*
X-1278890Y401710D01*
X-1278680Y400590D01*
X-1278890Y399460D01*
X-1279730Y398010D01*
X-1274230Y398490D01*
Y402840D01*
G01X-1248840Y231480D02*
X-1236140D01*
Y235500D01*
X-1236780Y236790D01*
X-1237620Y237590D01*
X-1239320Y237910D01*
X-1241010Y237590D01*
X-1242070Y236630D01*
X-1242700Y235500D01*
Y231480D01*
G01Y235500D02*
X-1248840Y237910D01*
G01Y247640D02*
X-1236140D01*
X-1238680Y245710D01*
G01X-1248840D02*
Y249570D01*
G01Y260270D02*
X-1246090Y260590D01*
X-1243760Y261080D01*
X-1241640Y261720D01*
X-1239320Y262530D01*
X-1236140Y263810D01*
Y257380D01*
G01X-1248830Y390220D02*
X-1236130D01*
Y394240D01*
X-1236770Y395530D01*
X-1237610Y396330D01*
X-1239310Y396650D01*
X-1241000Y396330D01*
X-1242060Y395370D01*
X-1242690Y394240D01*
Y390220D01*
G01Y394240D02*
X-1248830Y396650D01*
G01X-1238250Y403330D02*
X-1236980Y404290D01*
X-1236340Y405420D01*
X-1236130Y406710D01*
X-1236550Y408320D01*
X-1237610Y409440D01*
X-1238880Y409760D01*
X-1240150Y409600D01*
X-1241210Y408960D01*
X-1243330Y405740D01*
X-1244810Y404290D01*
X-1246930Y403330D01*
X-1248830Y403010D01*
Y409760D01*
G01X-1246930Y415800D02*
X-1247980Y416760D01*
X-1248620Y417890D01*
X-1248830Y419330D01*
X-1248410Y420780D01*
X-1247560Y421910D01*
X-1246080Y422710D01*
X-1244390Y422870D01*
X-1242690Y422550D01*
X-1241630Y421750D01*
X-1240790Y420620D01*
X-1240580Y419500D01*
X-1240790Y418370D01*
X-1241630Y416920D01*
X-1236130Y417400D01*
Y421750D01*
G01X-1032930Y237010D02*
X-1045630Y241030D01*
X-1032930Y245060D01*
G01X-1045630Y250450D02*
X-1032930D01*
Y253660D01*
X-1033570Y254950D01*
X-1034410Y255920D01*
X-1035680Y256720D01*
X-1037160Y257360D01*
X-1039280Y257520D01*
X-1041400Y257360D01*
X-1042880Y256720D01*
X-1044150Y255920D01*
X-1045000Y254950D01*
X-1045630Y253660D01*
Y250450D01*
G01Y266930D02*
X-1045420Y268060D01*
X-1044780Y269350D01*
X-1043730Y270150D01*
X-1042240Y270470D01*
X-1040760Y270150D01*
X-1039490Y269190D01*
X-1038860Y267740D01*
Y266130D01*
X-1038430Y265170D01*
X-1037380Y264360D01*
X-1035890Y264040D01*
X-1034410Y264520D01*
X-1033350Y265650D01*
X-1032930Y266930D01*
X-1033350Y268220D01*
X-1034410Y269350D01*
X-1035890Y269830D01*
X-1037380Y269510D01*
X-1038430Y268700D01*
X-1038860Y267740D01*
Y266130D01*
X-1039490Y264680D01*
X-1040760Y263720D01*
X-1042240Y263400D01*
X-1043730Y263720D01*
X-1044780Y264520D01*
X-1045420Y265810D01*
X-1045630Y266930D01*
G01X-1026580Y357550D02*
X-1039280Y361570D01*
X-1026580Y365600D01*
G01X-1039280Y370990D02*
X-1026580D01*
Y374200D01*
X-1027220Y375490D01*
X-1028060Y376460D01*
X-1029330Y377260D01*
X-1030810Y377900D01*
X-1032930Y378060D01*
X-1035050Y377900D01*
X-1036530Y377260D01*
X-1037800Y376460D01*
X-1038650Y375490D01*
X-1039280Y374200D01*
Y370990D01*
G01Y387470D02*
X-1026580D01*
X-1029120Y385540D01*
G01X-1039280D02*
Y389400D01*
G01X-1033990Y397370D02*
X-1032510Y398490D01*
X-1031660Y399460D01*
X-1031240Y400750D01*
X-1031660Y401870D01*
X-1032510Y402680D01*
X-1033780Y403320D01*
X-1035260Y403480D01*
X-1036530Y403320D01*
X-1037800Y402680D01*
X-1038860Y401710D01*
X-1039280Y400590D01*
X-1038860Y399300D01*
X-1037590Y398170D01*
X-1035680Y397530D01*
X-1033570Y397370D01*
X-1030810Y397690D01*
X-1029330Y398170D01*
X-1027850Y398980D01*
X-1026790Y400100D01*
X-1026580Y401230D01*
X-1027000Y402360D01*
X-1028060Y403160D01*
G01X-994830Y231610D02*
X-982130D01*
Y235630D01*
X-982770Y236920D01*
X-983610Y237720D01*
X-985310Y238040D01*
X-987000Y237720D01*
X-988060Y236760D01*
X-988690Y235630D01*
Y231610D01*
G01Y235630D02*
X-994830Y238040D01*
G01Y247770D02*
X-994620Y248900D01*
X-993980Y250190D01*
X-992930Y250990D01*
X-991440Y251310D01*
X-989960Y250990D01*
X-988690Y250030D01*
X-988060Y248580D01*
Y246970D01*
X-987630Y246010D01*
X-986580Y245200D01*
X-985090Y244880D01*
X-983610Y245360D01*
X-982550Y246490D01*
X-982130Y247770D01*
X-982550Y249060D01*
X-983610Y250190D01*
X-985090Y250670D01*
X-986580Y250350D01*
X-987630Y249540D01*
X-988060Y248580D01*
Y246970D01*
X-988690Y245520D01*
X-989960Y244560D01*
X-991440Y244240D01*
X-992930Y244560D01*
X-993980Y245360D01*
X-994620Y246650D01*
X-994830Y247770D01*
G01Y390220D02*
X-982130D01*
Y394240D01*
X-982770Y395530D01*
X-983610Y396330D01*
X-985310Y396650D01*
X-987000Y396330D01*
X-988060Y395370D01*
X-988690Y394240D01*
Y390220D01*
G01Y394240D02*
X-994830Y396650D01*
G01Y406380D02*
X-982130D01*
X-984670Y404450D01*
G01X-994830D02*
Y408310D01*
G01X-989540Y416280D02*
X-988060Y417400D01*
X-987210Y418370D01*
X-986790Y419660D01*
X-987210Y420780D01*
X-988060Y421590D01*
X-989330Y422230D01*
X-990810Y422390D01*
X-992080Y422230D01*
X-993350Y421590D01*
X-994410Y420620D01*
X-994830Y419500D01*
X-994410Y418210D01*
X-993140Y417080D01*
X-991230Y416440D01*
X-989120Y416280D01*
X-986360Y416600D01*
X-984880Y417080D01*
X-983400Y417890D01*
X-982340Y419010D01*
X-982130Y420140D01*
X-982550Y421270D01*
X-983610Y422070D01*
G01X-931330Y237010D02*
X-944030Y241030D01*
X-931330Y245060D01*
G01X-944030Y250450D02*
X-931330D01*
Y253660D01*
X-931970Y254950D01*
X-932810Y255920D01*
X-934080Y256720D01*
X-935560Y257360D01*
X-937680Y257520D01*
X-939800Y257360D01*
X-941280Y256720D01*
X-942550Y255920D01*
X-943400Y254950D01*
X-944030Y253660D01*
Y250450D01*
G01Y266610D02*
X-941280Y266930D01*
X-938950Y267420D01*
X-936830Y268060D01*
X-934510Y268870D01*
X-931330Y270150D01*
Y263720D01*
G01X-924980Y357550D02*
X-937680Y361570D01*
X-924980Y365600D01*
G01X-937680Y370990D02*
X-924980D01*
Y374200D01*
X-925620Y375490D01*
X-926460Y376460D01*
X-927730Y377260D01*
X-929210Y377900D01*
X-931330Y378060D01*
X-933450Y377900D01*
X-934930Y377260D01*
X-936200Y376460D01*
X-937050Y375490D01*
X-937680Y374200D01*
Y370990D01*
G01Y387470D02*
X-924980D01*
X-927520Y385540D01*
G01X-937680D02*
Y389400D01*
G01X-935780Y396890D02*
X-936830Y397850D01*
X-937470Y398980D01*
X-937680Y400420D01*
X-937260Y401870D01*
X-936410Y403000D01*
X-934930Y403800D01*
X-933240Y403960D01*
X-931540Y403640D01*
X-930480Y402840D01*
X-929640Y401710D01*
X-929430Y400590D01*
X-929640Y399460D01*
X-930480Y398010D01*
X-924980Y398490D01*
Y402840D01*
G01X-893240Y231610D02*
X-880540D01*
Y235630D01*
X-881180Y236920D01*
X-882020Y237720D01*
X-883720Y238040D01*
X-885410Y237720D01*
X-886470Y236760D01*
X-887100Y235630D01*
Y231610D01*
G01Y235630D02*
X-893240Y238040D01*
G01Y247450D02*
X-890490Y247770D01*
X-888160Y248260D01*
X-886040Y248900D01*
X-883720Y249710D01*
X-880540Y250990D01*
Y244560D01*
G01X-893230Y390220D02*
X-880530D01*
Y394240D01*
X-881170Y395530D01*
X-882010Y396330D01*
X-883710Y396650D01*
X-885400Y396330D01*
X-886460Y395370D01*
X-887090Y394240D01*
Y390220D01*
G01Y394240D02*
X-893230Y396650D01*
G01Y406380D02*
X-880530D01*
X-883070Y404450D01*
G01X-893230D02*
Y408310D01*
G01X-891330Y415800D02*
X-892380Y416760D01*
X-893020Y417890D01*
X-893230Y419330D01*
X-892810Y420780D01*
X-891960Y421910D01*
X-890480Y422710D01*
X-888790Y422870D01*
X-887090Y422550D01*
X-886030Y421750D01*
X-885190Y420620D01*
X-884980Y419500D01*
X-885190Y418370D01*
X-886030Y416920D01*
X-880530Y417400D01*
Y421750D01*
G01X-829730Y237010D02*
X-842430Y241030D01*
X-829730Y245060D01*
G01X-842430Y250450D02*
X-829730D01*
Y253660D01*
X-830370Y254950D01*
X-831210Y255920D01*
X-832480Y256720D01*
X-833960Y257360D01*
X-836080Y257520D01*
X-838200Y257360D01*
X-839680Y256720D01*
X-840950Y255920D01*
X-841800Y254950D01*
X-842430Y253660D01*
Y250450D01*
G01X-837140Y263880D02*
X-835660Y265000D01*
X-834810Y265970D01*
X-834390Y267260D01*
X-834810Y268380D01*
X-835660Y269190D01*
X-836930Y269830D01*
X-838410Y269990D01*
X-839680Y269830D01*
X-840950Y269190D01*
X-842010Y268220D01*
X-842430Y267100D01*
X-842010Y265810D01*
X-840740Y264680D01*
X-838830Y264040D01*
X-836720Y263880D01*
X-833960Y264200D01*
X-832480Y264680D01*
X-831000Y265490D01*
X-829940Y266610D01*
X-829730Y267740D01*
X-830150Y268870D01*
X-831210Y269670D01*
G01X-823380Y357550D02*
X-836080Y361570D01*
X-823380Y365600D01*
G01X-836080Y370990D02*
X-823380D01*
Y374200D01*
X-824020Y375490D01*
X-824860Y376460D01*
X-826130Y377260D01*
X-827610Y377900D01*
X-829730Y378060D01*
X-831850Y377900D01*
X-833330Y377260D01*
X-834600Y376460D01*
X-835450Y375490D01*
X-836080Y374200D01*
Y370990D01*
G01Y387470D02*
X-823380D01*
X-825920Y385540D01*
G01X-836080D02*
Y389400D01*
G01Y402360D02*
X-823380D01*
X-832480Y396400D01*
Y404450D01*
G01X-791640Y231610D02*
X-778940D01*
Y235630D01*
X-779580Y236920D01*
X-780420Y237720D01*
X-782120Y238040D01*
X-783810Y237720D01*
X-784870Y236760D01*
X-785500Y235630D01*
Y231610D01*
G01Y235630D02*
X-791640Y238040D01*
G01X-786350Y244720D02*
X-784870Y245840D01*
X-784020Y246810D01*
X-783600Y248100D01*
X-784020Y249220D01*
X-784870Y250030D01*
X-786140Y250670D01*
X-787620Y250830D01*
X-788890Y250670D01*
X-790160Y250030D01*
X-791220Y249060D01*
X-791640Y247940D01*
X-791220Y246650D01*
X-789950Y245520D01*
X-788040Y244880D01*
X-785930Y244720D01*
X-783170Y245040D01*
X-781690Y245520D01*
X-780210Y246330D01*
X-779150Y247450D01*
X-778940Y248580D01*
X-779360Y249710D01*
X-780420Y250510D01*
G01X-791630Y390220D02*
X-778930D01*
Y394240D01*
X-779570Y395530D01*
X-780410Y396330D01*
X-782110Y396650D01*
X-783800Y396330D01*
X-784860Y395370D01*
X-785490Y394240D01*
Y390220D01*
G01Y394240D02*
X-791630Y396650D01*
G01Y406380D02*
X-778930D01*
X-781470Y404450D01*
G01X-791630D02*
Y408310D01*
G01Y421270D02*
X-778930D01*
X-788030Y415310D01*
Y423360D01*
G01X-728130Y237010D02*
X-740830Y241030D01*
X-728130Y245060D01*
G01X-740830Y250450D02*
X-728130D01*
Y253660D01*
X-728770Y254950D01*
X-729610Y255920D01*
X-730880Y256720D01*
X-732360Y257360D01*
X-734480Y257520D01*
X-736600Y257360D01*
X-738080Y256720D01*
X-739350Y255920D01*
X-740200Y254950D01*
X-740830Y253660D01*
Y250450D01*
G01X-738930Y263400D02*
X-739980Y264360D01*
X-740620Y265490D01*
X-740830Y266930D01*
X-740410Y268380D01*
X-739560Y269510D01*
X-738080Y270310D01*
X-736390Y270470D01*
X-734690Y270150D01*
X-733630Y269350D01*
X-732790Y268220D01*
X-732580Y267100D01*
X-732790Y265970D01*
X-733630Y264520D01*
X-728130Y265000D01*
Y269350D01*
G01X-721780Y357550D02*
X-734480Y361570D01*
X-721780Y365600D01*
G01X-734480Y370990D02*
X-721780D01*
Y374200D01*
X-722420Y375490D01*
X-723260Y376460D01*
X-724530Y377260D01*
X-726010Y377900D01*
X-728130Y378060D01*
X-730250Y377900D01*
X-731730Y377260D01*
X-733000Y376460D01*
X-733850Y375490D01*
X-734480Y374200D01*
Y370990D01*
G01Y387470D02*
X-721780D01*
X-724320Y385540D01*
G01X-734480D02*
Y389400D01*
G01X-731940Y396890D02*
X-733420Y397850D01*
X-734270Y399140D01*
X-734480Y400590D01*
X-734270Y401870D01*
X-733210Y403160D01*
X-731940Y403960D01*
X-730670Y404120D01*
X-729190Y403800D01*
X-728130Y402680D01*
X-727710Y401550D01*
Y400100D01*
G01Y401550D02*
X-727070Y402520D01*
X-726010Y403320D01*
X-724740Y403640D01*
X-723470Y403320D01*
X-722420Y402520D01*
X-721780Y401070D01*
X-721990Y399620D01*
X-722840Y398170D01*
G01X-690030Y231610D02*
X-677330D01*
Y235630D01*
X-677970Y236920D01*
X-678810Y237720D01*
X-680510Y238040D01*
X-682200Y237720D01*
X-683260Y236760D01*
X-683890Y235630D01*
Y231610D01*
G01Y235630D02*
X-690030Y238040D01*
G01X-688130Y244240D02*
X-689180Y245200D01*
X-689820Y246330D01*
X-690030Y247770D01*
X-689610Y249220D01*
X-688760Y250350D01*
X-687280Y251150D01*
X-685590Y251310D01*
X-683890Y250990D01*
X-682830Y250190D01*
X-681990Y249060D01*
X-681780Y247940D01*
X-681990Y246810D01*
X-682830Y245360D01*
X-677330Y245840D01*
Y250190D01*
G01X-690030Y390220D02*
X-677330D01*
Y394240D01*
X-677970Y395530D01*
X-678810Y396330D01*
X-680510Y396650D01*
X-682200Y396330D01*
X-683260Y395370D01*
X-683890Y394240D01*
Y390220D01*
G01Y394240D02*
X-690030Y396650D01*
G01Y406380D02*
X-677330D01*
X-679870Y404450D01*
G01X-690030D02*
Y408310D01*
G01X-687490Y415800D02*
X-688970Y416760D01*
X-689820Y418050D01*
X-690030Y419500D01*
X-689820Y420780D01*
X-688760Y422070D01*
X-687490Y422870D01*
X-686220Y423030D01*
X-684740Y422710D01*
X-683680Y421590D01*
X-683260Y420460D01*
Y419010D01*
G01Y420460D02*
X-682620Y421430D01*
X-681560Y422230D01*
X-680290Y422550D01*
X-679020Y422230D01*
X-677970Y421430D01*
X-677330Y419980D01*
X-677540Y418530D01*
X-678390Y417080D01*
G01X-626530Y237010D02*
X-639230Y241030D01*
X-626530Y245060D01*
G01X-639230Y250450D02*
X-626530D01*
Y253660D01*
X-627170Y254950D01*
X-628010Y255920D01*
X-629280Y256720D01*
X-630760Y257360D01*
X-632880Y257520D01*
X-635000Y257360D01*
X-636480Y256720D01*
X-637750Y255920D01*
X-638600Y254950D01*
X-639230Y253660D01*
Y250450D01*
G01Y268870D02*
X-626530D01*
X-635630Y262910D01*
Y270960D01*
G01X-620180Y357550D02*
X-632880Y361570D01*
X-620180Y365600D01*
G01X-632880Y370990D02*
X-620180D01*
Y374200D01*
X-620820Y375490D01*
X-621660Y376460D01*
X-622930Y377260D01*
X-624410Y377900D01*
X-626530Y378060D01*
X-628650Y377900D01*
X-630130Y377260D01*
X-631400Y376460D01*
X-632250Y375490D01*
X-632880Y374200D01*
Y370990D01*
G01Y387470D02*
X-620180D01*
X-622720Y385540D01*
G01X-632880D02*
Y389400D01*
G01X-622300Y397370D02*
X-621030Y398330D01*
X-620390Y399460D01*
X-620180Y400750D01*
X-620600Y402360D01*
X-621660Y403480D01*
X-622930Y403800D01*
X-624200Y403640D01*
X-625260Y403000D01*
X-627380Y399780D01*
X-628860Y398330D01*
X-630980Y397370D01*
X-632880Y397050D01*
Y403800D01*
G01X-588430Y231610D02*
X-575730D01*
Y235630D01*
X-576370Y236920D01*
X-577210Y237720D01*
X-578910Y238040D01*
X-580600Y237720D01*
X-581660Y236760D01*
X-582290Y235630D01*
Y231610D01*
G01Y235630D02*
X-588430Y238040D01*
G01Y249710D02*
X-575730D01*
X-584830Y243750D01*
Y251800D01*
G01X-588430Y390220D02*
X-575730D01*
Y394240D01*
X-576370Y395530D01*
X-577210Y396330D01*
X-578910Y396650D01*
X-580600Y396330D01*
X-581660Y395370D01*
X-582290Y394240D01*
Y390220D01*
G01Y394240D02*
X-588430Y396650D01*
G01Y406380D02*
X-575730D01*
X-578270Y404450D01*
G01X-588430D02*
Y408310D01*
G01X-577850Y416280D02*
X-576580Y417240D01*
X-575940Y418370D01*
X-575730Y419660D01*
X-576150Y421270D01*
X-577210Y422390D01*
X-578480Y422710D01*
X-579750Y422550D01*
X-580810Y421910D01*
X-582930Y418690D01*
X-584410Y417240D01*
X-586530Y416280D01*
X-588430Y415960D01*
Y422710D01*
G01X-524930Y237010D02*
X-537630Y241030D01*
X-524930Y245060D01*
G01X-537630Y250450D02*
X-524930D01*
Y253660D01*
X-525570Y254950D01*
X-526410Y255920D01*
X-527680Y256720D01*
X-529160Y257360D01*
X-531280Y257520D01*
X-533400Y257360D01*
X-534880Y256720D01*
X-536150Y255920D01*
X-537000Y254950D01*
X-537630Y253660D01*
Y250450D01*
G01X-535090Y263400D02*
X-536570Y264360D01*
X-537420Y265650D01*
X-537630Y267100D01*
X-537420Y268380D01*
X-536360Y269670D01*
X-535090Y270470D01*
X-533820Y270630D01*
X-532340Y270310D01*
X-531280Y269190D01*
X-530860Y268060D01*
Y266610D01*
G01Y268060D02*
X-530220Y269030D01*
X-529160Y269830D01*
X-527890Y270150D01*
X-526620Y269830D01*
X-525570Y269030D01*
X-524930Y267580D01*
X-525140Y266130D01*
X-525990Y264680D01*
G01X-518580Y357550D02*
X-531280Y361570D01*
X-518580Y365600D01*
G01X-531280Y370990D02*
X-518580D01*
Y374200D01*
X-519220Y375490D01*
X-520060Y376460D01*
X-521330Y377260D01*
X-522810Y377900D01*
X-524930Y378060D01*
X-527050Y377900D01*
X-528530Y377260D01*
X-529800Y376460D01*
X-530650Y375490D01*
X-531280Y374200D01*
Y370990D01*
G01Y387470D02*
X-518580D01*
X-521120Y385540D01*
G01X-531280D02*
Y389400D01*
G01Y400420D02*
X-518580D01*
X-521120Y398490D01*
G01X-531280D02*
Y402350D01*
G01X-486830Y231610D02*
X-474130D01*
Y235630D01*
X-474770Y236920D01*
X-475610Y237720D01*
X-477310Y238040D01*
X-479000Y237720D01*
X-480060Y236760D01*
X-480690Y235630D01*
Y231610D01*
G01Y235630D02*
X-486830Y238040D01*
G01X-484290Y244240D02*
X-485770Y245200D01*
X-486620Y246490D01*
X-486830Y247940D01*
X-486620Y249220D01*
X-485560Y250510D01*
X-484290Y251310D01*
X-483020Y251470D01*
X-481540Y251150D01*
X-480480Y250030D01*
X-480060Y248900D01*
Y247450D01*
G01Y248900D02*
X-479420Y249870D01*
X-478360Y250670D01*
X-477090Y250990D01*
X-475820Y250670D01*
X-474770Y249870D01*
X-474130Y248420D01*
X-474340Y246970D01*
X-475190Y245520D01*
G01X-486830Y390220D02*
X-474130D01*
Y394240D01*
X-474770Y395530D01*
X-475610Y396330D01*
X-477310Y396650D01*
X-479000Y396330D01*
X-480060Y395370D01*
X-480690Y394240D01*
Y390220D01*
G01Y394240D02*
X-486830Y396650D01*
G01Y406380D02*
X-474130D01*
X-476670Y404450D01*
G01X-486830D02*
Y408310D01*
G01Y419330D02*
X-474130D01*
X-476670Y417400D01*
G01X-486830D02*
Y421260D01*
G01X-423330Y237010D02*
X-436030Y241030D01*
X-423330Y245060D01*
G01X-436030Y250450D02*
X-423330D01*
Y253660D01*
X-423970Y254950D01*
X-424810Y255920D01*
X-426080Y256720D01*
X-427560Y257360D01*
X-429680Y257520D01*
X-431800Y257360D01*
X-433280Y256720D01*
X-434550Y255920D01*
X-435400Y254950D01*
X-436030Y253660D01*
Y250450D01*
G01X-425450Y263880D02*
X-424180Y264840D01*
X-423540Y265970D01*
X-423330Y267260D01*
X-423750Y268870D01*
X-424810Y269990D01*
X-426080Y270310D01*
X-427350Y270150D01*
X-428410Y269510D01*
X-430530Y266290D01*
X-432010Y264840D01*
X-434130Y263880D01*
X-436030Y263560D01*
Y270310D01*
G01X-416980Y357550D02*
X-429680Y361570D01*
X-416980Y365600D01*
G01X-429680Y370990D02*
X-416980D01*
Y374200D01*
X-417620Y375490D01*
X-418460Y376460D01*
X-419730Y377260D01*
X-421210Y377900D01*
X-423330Y378060D01*
X-425450Y377900D01*
X-426930Y377260D01*
X-428200Y376460D01*
X-429050Y375490D01*
X-429680Y374200D01*
Y370990D01*
G01Y387470D02*
X-416980D01*
X-419520Y385540D01*
G01X-429680D02*
Y389400D01*
G01X-416980Y400420D02*
X-417400Y399140D01*
X-418460Y398170D01*
X-419730Y397530D01*
X-421430Y397050D01*
X-423330Y396890D01*
X-425240Y397050D01*
X-426930Y397530D01*
X-428200Y398170D01*
X-429260Y399140D01*
X-429680Y400420D01*
X-429260Y401710D01*
X-428200Y402680D01*
X-426930Y403320D01*
X-425240Y403800D01*
X-423330Y403960D01*
X-421430Y403800D01*
X-419730Y403320D01*
X-418460Y402680D01*
X-417400Y401710D01*
X-416980Y400420D01*
G01X-385230Y231610D02*
X-372530D01*
Y235630D01*
X-373170Y236920D01*
X-374010Y237720D01*
X-375710Y238040D01*
X-377400Y237720D01*
X-378460Y236760D01*
X-379090Y235630D01*
Y231610D01*
G01Y235630D02*
X-385230Y238040D01*
G01X-374650Y244720D02*
X-373380Y245680D01*
X-372740Y246810D01*
X-372530Y248100D01*
X-372950Y249710D01*
X-374010Y250830D01*
X-375280Y251150D01*
X-376550Y250990D01*
X-377610Y250350D01*
X-379730Y247130D01*
X-381210Y245680D01*
X-383330Y244720D01*
X-385230Y244400D01*
Y251150D01*
G01Y390220D02*
X-372530D01*
Y394240D01*
X-373170Y395530D01*
X-374010Y396330D01*
X-375710Y396650D01*
X-377400Y396330D01*
X-378460Y395370D01*
X-379090Y394240D01*
Y390220D01*
G01Y394240D02*
X-385230Y396650D01*
G01Y406380D02*
X-372530D01*
X-375070Y404450D01*
G01X-385230D02*
Y408310D01*
G01X-372530Y419330D02*
X-372950Y418050D01*
X-374010Y417080D01*
X-375280Y416440D01*
X-376980Y415960D01*
X-378880Y415800D01*
X-380790Y415960D01*
X-382480Y416440D01*
X-383750Y417080D01*
X-384810Y418050D01*
X-385230Y419330D01*
X-384810Y420620D01*
X-383750Y421590D01*
X-382480Y422230D01*
X-380790Y422710D01*
X-378880Y422870D01*
X-376980Y422710D01*
X-375280Y422230D01*
X-374010Y421590D01*
X-372950Y420620D01*
X-372530Y419330D01*
G01X-321730Y237010D02*
X-334430Y241030D01*
X-321730Y245060D01*
G01X-334430Y250450D02*
X-321730D01*
Y253660D01*
X-322370Y254950D01*
X-323210Y255920D01*
X-324480Y256720D01*
X-325960Y257360D01*
X-328080Y257520D01*
X-330200Y257360D01*
X-331680Y256720D01*
X-332950Y255920D01*
X-333800Y254950D01*
X-334430Y253660D01*
Y250450D01*
G01Y266930D02*
X-321730D01*
X-324270Y265000D01*
G01X-334430D02*
Y268860D01*
G01X-315380Y370360D02*
X-328080Y374380D01*
X-315380Y378410D01*
G01X-328080Y383800D02*
X-315380D01*
Y387010D01*
X-316020Y388300D01*
X-316860Y389270D01*
X-318130Y390070D01*
X-319610Y390710D01*
X-321730Y390870D01*
X-323850Y390710D01*
X-325330Y390070D01*
X-326600Y389270D01*
X-327450Y388300D01*
X-328080Y387010D01*
Y383800D01*
G01X-326600Y397550D02*
X-327660Y398680D01*
X-328080Y399960D01*
X-327660Y401250D01*
X-326390Y402380D01*
X-324480Y403180D01*
X-322580Y403500D01*
X-320250D01*
X-318340Y403180D01*
X-316650Y402380D01*
X-315800Y401410D01*
X-315380Y400280D01*
X-315800Y399000D01*
X-316650Y398030D01*
X-317920Y397390D01*
X-319610Y397070D01*
X-321090Y397390D01*
X-322580Y398190D01*
X-323420Y399160D01*
X-323640Y400280D01*
X-323210Y401570D01*
X-322150Y402540D01*
X-320250Y403500D01*
G01X-283640Y231610D02*
X-270940D01*
Y235630D01*
X-271580Y236920D01*
X-272420Y237720D01*
X-274120Y238040D01*
X-275810Y237720D01*
X-276870Y236760D01*
X-277500Y235630D01*
Y231610D01*
G01Y235630D02*
X-283640Y238040D01*
G01Y247770D02*
X-270940D01*
X-273480Y245840D01*
G01X-283640D02*
Y249700D01*
G01X-283630Y403060D02*
X-270930D01*
Y407080D01*
X-271570Y408370D01*
X-272410Y409170D01*
X-274110Y409490D01*
X-275800Y409170D01*
X-276860Y408210D01*
X-277490Y407080D01*
Y403060D01*
G01Y407080D02*
X-283630Y409490D01*
G01X-282150Y416490D02*
X-283210Y417620D01*
X-283630Y418900D01*
X-283210Y420190D01*
X-281940Y421320D01*
X-280030Y422120D01*
X-278130Y422440D01*
X-275800D01*
X-273890Y422120D01*
X-272200Y421320D01*
X-271350Y420350D01*
X-270930Y419220D01*
X-271350Y417940D01*
X-272200Y416970D01*
X-273470Y416330D01*
X-275160Y416010D01*
X-276640Y416330D01*
X-278130Y417130D01*
X-278970Y418100D01*
X-279190Y419220D01*
X-278760Y420510D01*
X-277700Y421480D01*
X-275800Y422440D01*
G01X-2010600Y161200D02*
X-2026600D01*
G01X-2010600Y402500D02*
X-2026600D01*
G01X-2018600Y169200D02*
Y153200D01*
G01Y410500D02*
Y394500D01*
G01X-1909000Y161200D02*
X-1925000D01*
G01X-1909000Y402500D02*
X-1925000D01*
G01X-1917000Y169200D02*
Y153200D01*
G01Y410500D02*
Y394500D01*
G01X-1807400Y161200D02*
X-1823400D01*
G01X-1807400Y402500D02*
X-1823400D01*
G01X-1815400Y169200D02*
Y153200D01*
G01Y410500D02*
Y394500D01*
G01X-1713800Y169200D02*
Y153200D01*
G01X-1705800Y161200D02*
X-1721800D01*
G01X-1713800Y410500D02*
Y394500D01*
G01X-1705800Y402500D02*
X-1721800D01*
G01X-1604200Y161200D02*
X-1620200D01*
G01X-1604200Y402500D02*
X-1620200D01*
G01X-1612200Y169200D02*
Y153200D01*
G01Y410500D02*
Y394500D01*
G01X-1510600Y169200D02*
Y153200D01*
G01X-1502600Y161200D02*
X-1518600D01*
G01X-1510600Y410500D02*
Y394500D01*
G01X-1502600Y402500D02*
X-1518600D01*
G01X-1401000Y161200D02*
X-1417000D01*
G01X-1401000Y402500D02*
X-1417000D01*
G01X-1409000Y169200D02*
Y153200D01*
G01Y410500D02*
Y394500D01*
G01X-1307400Y169200D02*
Y153200D01*
G01X-1299400Y161200D02*
X-1315400D01*
G01X-1307400Y410500D02*
Y394500D01*
G01X-1299400Y402500D02*
X-1315400D01*
G01X-1045400Y161200D02*
X-1061400D01*
G01X-1045400Y402500D02*
X-1061400D01*
G01X-1053400Y169200D02*
Y153200D01*
G01Y410500D02*
Y394500D01*
G01X-943800Y161200D02*
X-959800D01*
G01X-943800Y402500D02*
X-959800D01*
G01X-951800Y169200D02*
Y153200D01*
G01Y410500D02*
Y394500D01*
G01X-850200Y169200D02*
Y153200D01*
G01X-842200Y161200D02*
X-858200D01*
G01X-850200Y410500D02*
Y394500D01*
G01X-842200Y402500D02*
X-858200D01*
G01X-740600Y161200D02*
X-756600D01*
G01X-740600Y402500D02*
X-756600D01*
G01X-748600Y169200D02*
Y153200D01*
G01Y410500D02*
Y394500D01*
G01X-647000Y169200D02*
Y153200D01*
G01X-639000Y161200D02*
X-655000D01*
G01X-647000Y410500D02*
Y394500D01*
G01X-639000Y402500D02*
X-655000D01*
G01X-537400Y161200D02*
X-553400D01*
G01X-537400Y402500D02*
X-553400D01*
G01X-545400Y169200D02*
Y153200D01*
G01Y410500D02*
Y394500D01*
G01X-443800Y169200D02*
Y153200D01*
G01X-435800Y161200D02*
X-451800D01*
G01X-443800Y410500D02*
Y394500D01*
G01X-435800Y402500D02*
X-451800D01*
G01X-334200Y161200D02*
X-350200D01*
G01X-334200Y402500D02*
X-350200D01*
G01X-342200Y169200D02*
Y153200D01*
G01Y410500D02*
Y394500D01*
M02*
