G04 ================== begin FILE IDENTIFICATION RECORD ==================*
G04 Layout Name:  E:/ORCAD_sch/K400/BSK-PI/BSK-PI_03v1/pcb/BSK-PI_03v1.brd*
G04 Film Name:    BOTTOM*
G04 File Format:  Gerber RS274X*
G04 File Origin:  Cadence Allegro 16.6-S002*
G04 Origin Date:  Thu Jan 31 16:43:48 2013*
G04 *
G04 Layer:  ETCH/BOTTOM*
G04 Layer:  PIN/BOTTOM*
G04 Layer:  VIA CLASS/BOTTOM*
G04 *
G04 Offset:    (0.000 0.000)*
G04 Mirror:    No*
G04 Mode:      Positive*
G04 Rotation:  0*
G04 FullContactRelief:  No*
G04 UndefLineWidth:     0.250*
G04 ================== end FILE IDENTIFICATION RECORD ====================*
%FSLAX34Y34*MOMM*%
%IR0*IPPOS*OFA0.00000B0.00000*MIA0B0*SFA1.00000B1.00000*%
%ADD10C,1.*%
%ADD15C,1.6*%
%ADD11C,5.2*%
%ADD12C,1.9*%
%ADD14R,1.4X.95*%
%ADD13R,1.9X1.9*%
%ADD16R,1.55X1.55*%
%ADD17C,.3*%
%ADD18C,.7*%
G75*
%LPD*%
G75*
G36*
G01X-2146300Y435430D02*
G02X-2144470Y436040I1019J-7D01*
G03X-2017400Y441440I61671J46558D01*
G01X-2017250Y441680D01*
X-2015700D01*
X-2015440Y441050D01*
X-2015680Y440810D01*
G03X-1996790Y440010I9080J-9009D01*
G02X-1996010Y441680I784J651D01*
G01X-1991080D01*
Y450680D01*
X-1968820D01*
Y427430D01*
X-1962320D01*
Y403700D01*
X-1936920Y378300D01*
Y110480D01*
G03X-1923880I6520J-8880D01*
G01Y383700D01*
X-1949280Y409100D01*
Y427430D01*
X-1942780D01*
Y467970D01*
X-1968820D01*
Y463720D01*
X-1991080D01*
Y472720D01*
X-2005020D01*
G02X-2006030Y473860I4J1021D01*
G03X-2014750Y519200I-76772J8743D01*
G02X-2013850Y520700I901J480D01*
G01X-145150D01*
G02X-144250Y519200I-1J-1020D01*
G03X-14530Y436040I68051J-36602D01*
G02X-12700Y435420I811J-617D01*
G01Y97980D01*
G02X-14530Y97360I-1019J-3D01*
G03X-144250Y14200I-61669J-46558D01*
G02X-145150Y12700I-901J-480D01*
G01X-2013850D01*
G02X-2014750Y14200I1J1020D01*
G03X-2144470Y97360I-68051J36602D01*
G02X-2146300Y97970I-811J617D01*
G01Y435430D01*
G37*
%LPC*%
G75*
G36*
G01X-508860Y30590D02*
G02X-533910Y33400I-11840J7509D01*
G03X-535800Y33480I-961J-341D01*
G02Y42720I-10300J4620D01*
G03X-533910Y42800I929J421D01*
G02X-528210Y49940I13209J-4700D01*
G03Y51660I-546J860D01*
G02X-533910Y58800I7509J11840D01*
G03X-535800Y58880I-961J-341D01*
G02Y68120I-10300J4620D01*
G03X-533910Y68200I929J421D01*
G02X-508860Y71010I13210J-4699D01*
G03X-507140I860J546D01*
G02X-483460I11840J-7510D01*
G03X-481740I860J546D01*
G02X-458060I11840J-7510D01*
G03X-456340I860J546D01*
G02X-432660I11840J-7510D01*
G03X-430940I860J546D01*
G02X-407260I11840J-7510D01*
G03X-405540I860J546D01*
G02X-381860I11840J-7510D01*
G03X-380140I860J546D01*
G02X-356460I11840J-7510D01*
G03X-354740I860J546D01*
G02X-333010Y73440I11841J-7509D01*
G03X-331270Y74160I721J720D01*
G01Y77270D01*
X-303730D01*
Y49730D01*
X-306840D01*
G03X-307560Y47990I0J-1019D01*
G02X-329340Y30590I-9942J-9886D01*
G03X-331060I-860J-546D01*
G02X-354740I-11840J7510D01*
G03X-356460I-860J-546D01*
G02X-380140I-11840J7510D01*
G03X-381860I-860J-546D01*
G02X-405540I-11840J7510D01*
G03X-407260I-860J-546D01*
G02X-430940I-11840J7510D01*
G03X-432660I-860J-546D01*
G02X-456340I-11840J7510D01*
G03X-458060I-860J-546D01*
G02X-481740I-11840J7510D01*
G03X-483460I-860J-546D01*
G02X-507140I-11840J7510D01*
G03X-508860I-860J-546D01*
G37*
G36*
G01X-1018700Y336720D02*
X-997120Y358300D01*
Y427430D01*
X-1003620D01*
Y450680D01*
X-1025880D01*
Y441680D01*
X-1030810D01*
G03X-1031590Y440010I4J-1019D01*
G02X-1051210I-9810J-8210D01*
G03X-1051990Y441680I-784J651D01*
G01X-1056920D01*
Y472720D01*
X-1025880D01*
Y463720D01*
X-1003620D01*
Y467970D01*
X-977580D01*
Y427430D01*
X-984080D01*
Y352900D01*
X-1011220Y325760D01*
G03X-1010500Y324020I722J-720D01*
G01X-917100D01*
X-895520Y345600D01*
Y427430D01*
X-902020D01*
Y450680D01*
X-924280D01*
Y441680D01*
X-929210D01*
G03X-929990Y440010I4J-1019D01*
G02X-949610I-9810J-8210D01*
G03X-950390Y441680I-784J651D01*
G01X-955320D01*
Y472720D01*
X-924280D01*
Y463720D01*
X-902020D01*
Y467970D01*
X-875980D01*
Y427430D01*
X-882480D01*
Y340200D01*
X-909620Y313060D01*
G03X-908900Y311320I722J-720D01*
G01X-815500D01*
X-793920Y332900D01*
Y427430D01*
X-800420D01*
Y450680D01*
X-822680D01*
Y441680D01*
X-827610D01*
G03X-828390Y440010I4J-1019D01*
G02X-848010I-9810J-8210D01*
G03X-848790Y441680I-784J651D01*
G01X-853720D01*
Y472720D01*
X-822680D01*
Y463720D01*
X-800420D01*
Y467970D01*
X-774380D01*
Y427430D01*
X-780880D01*
Y327500D01*
X-808020Y300360D01*
G03X-807300Y298620I722J-720D01*
G01X-713900D01*
X-692320Y320200D01*
Y427430D01*
X-698820D01*
Y450680D01*
X-721080D01*
Y441680D01*
X-726010D01*
G03X-726790Y440010I4J-1019D01*
G02X-746410I-9810J-8210D01*
G03X-747190Y441680I-784J651D01*
G01X-752120D01*
Y472720D01*
X-721080D01*
Y463720D01*
X-698820D01*
Y467970D01*
X-672780D01*
Y427430D01*
X-679280D01*
Y314800D01*
X-706420Y287660D01*
G03X-705700Y285920I722J-720D01*
G01X-612300D01*
X-590720Y307500D01*
Y427430D01*
X-597220D01*
Y450680D01*
X-619480D01*
Y441680D01*
X-624410D01*
G03X-625190Y440010I4J-1019D01*
G02X-644810I-9810J-8210D01*
G03X-645590Y441680I-784J651D01*
G01X-650520D01*
Y472720D01*
X-619480D01*
Y463720D01*
X-597220D01*
Y467970D01*
X-571180D01*
Y427430D01*
X-577680D01*
Y302100D01*
X-604820Y274960D01*
G03X-604100Y273220I722J-720D01*
G01X-510700D01*
X-489120Y294800D01*
Y427430D01*
X-495620D01*
Y450680D01*
X-517880D01*
Y441680D01*
X-522810D01*
G03X-523590Y440010I4J-1019D01*
G02X-543210I-9810J-8210D01*
G03X-543990Y441680I-784J651D01*
G01X-548920D01*
Y472720D01*
X-517880D01*
Y463720D01*
X-495620D01*
Y467970D01*
X-469580D01*
Y427430D01*
X-476080D01*
Y289400D01*
X-503220Y262260D01*
G03X-502500Y260520I722J-720D01*
G01X-409100D01*
X-387520Y282100D01*
Y427430D01*
X-394020D01*
Y450680D01*
X-416280D01*
Y441680D01*
X-421210D01*
G03X-421990Y440010I4J-1019D01*
G02X-441610I-9810J-8210D01*
G03X-442390Y441680I-784J651D01*
G01X-447320D01*
Y472720D01*
X-416280D01*
Y463720D01*
X-394020D01*
Y467970D01*
X-367980D01*
Y427430D01*
X-374480D01*
Y276700D01*
X-401620Y249560D01*
G03X-400900Y247820I722J-720D01*
G01X-307500D01*
X-285920Y269400D01*
Y427430D01*
X-292420D01*
Y450680D01*
X-314680D01*
Y441680D01*
X-319610D01*
G03X-320390Y440010I4J-1019D01*
G02X-340010I-9810J-8210D01*
G03X-340790Y441680I-784J651D01*
G01X-345720D01*
Y472720D01*
X-314680D01*
Y463720D01*
X-292420D01*
Y467970D01*
X-266380D01*
Y427430D01*
X-272880D01*
Y264000D01*
X-302100Y234780D01*
X-1051400D01*
X-1053020Y233160D01*
G03X-1052300Y231420I722J-720D01*
G01X-1025880D01*
Y222420D01*
X-1003620D01*
Y226670D01*
X-977580D01*
Y185830D01*
X-963370Y171620D01*
X-860900D01*
X-846460Y157180D01*
G03X-844720Y157900I720J722D01*
G01Y162400D01*
X-872700Y190380D01*
X-875980D01*
Y186130D01*
X-902020D01*
Y209380D01*
X-924280D01*
Y200380D01*
X-929210D01*
G03X-929990Y198710I4J-1019D01*
G02X-949610I-9810J-8210D01*
G03X-950390Y200380I-784J651D01*
G01X-955320D01*
Y231420D01*
X-924280D01*
Y222420D01*
X-902020D01*
Y226670D01*
X-875980D01*
Y203420D01*
X-867300D01*
X-852700Y188820D01*
G03X-850960Y189610I723J719D01*
G02X-848010Y198710I12760J892D01*
G03X-848790Y200380I-784J651D01*
G01X-853720D01*
Y231420D01*
X-822680D01*
Y222420D01*
X-800420D01*
Y226670D01*
X-774380D01*
Y186130D01*
X-780880D01*
Y175100D01*
X-818980Y137000D01*
Y132500D01*
G03X-817240Y131780I1020J2D01*
G01X-790100Y158920D01*
X-713900D01*
X-692320Y180500D01*
Y186130D01*
X-698820D01*
Y209380D01*
X-721080D01*
Y200380D01*
X-726010D01*
G03X-726790Y198710I4J-1019D01*
G02X-746410I-9810J-8210D01*
G03X-747190Y200380I-784J651D01*
G01X-752120D01*
Y231420D01*
X-721080D01*
Y222420D01*
X-698820D01*
Y226670D01*
X-672780D01*
Y186130D01*
X-679280D01*
Y175100D01*
X-706420Y147960D01*
G03X-705700Y146220I722J-720D01*
G01X-612300D01*
X-590720Y167800D01*
Y186130D01*
X-597220D01*
Y209380D01*
X-619480D01*
Y200380D01*
X-624410D01*
G03X-625190Y198710I4J-1019D01*
G02X-644810I-9810J-8210D01*
G03X-645590Y200380I-784J651D01*
G01X-650520D01*
Y231420D01*
X-619480D01*
Y222420D01*
X-597220D01*
Y226670D01*
X-571180D01*
Y186130D01*
X-577680D01*
Y162400D01*
X-604820Y135260D01*
G03X-604100Y133520I722J-720D01*
G01X-510700D01*
X-489120Y155100D01*
Y186130D01*
X-495620D01*
Y209380D01*
X-517880D01*
Y200380D01*
X-522810D01*
G03X-523590Y198710I4J-1019D01*
G02X-543210I-9810J-8210D01*
G03X-543990Y200380I-784J651D01*
G01X-548920D01*
Y231420D01*
X-517880D01*
Y222420D01*
X-495620D01*
Y226670D01*
X-469580D01*
Y186130D01*
X-476080D01*
Y149700D01*
X-503220Y122560D01*
G03X-502500Y120820I722J-720D01*
G01X-409100D01*
X-387520Y142400D01*
Y186130D01*
X-394020D01*
Y209380D01*
X-416280D01*
Y200380D01*
X-421210D01*
G03X-421990Y198710I4J-1019D01*
G02X-441610I-9810J-8210D01*
G03X-442390Y200380I-784J651D01*
G01X-447320D01*
Y231420D01*
X-416280D01*
Y222420D01*
X-394020D01*
Y226670D01*
X-367980D01*
Y186130D01*
X-374480D01*
Y137000D01*
X-401620Y109860D01*
G03X-400900Y108120I722J-720D01*
G01X-307500D01*
X-285920Y129700D01*
Y186130D01*
X-292420D01*
Y209380D01*
X-314680D01*
Y200380D01*
X-319610D01*
G03X-320390Y198710I4J-1019D01*
G02X-340010I-9810J-8210D01*
G03X-340790Y200380I-784J651D01*
G01X-345720D01*
Y231420D01*
X-314680D01*
Y222420D01*
X-292420D01*
Y226670D01*
X-266380D01*
Y186130D01*
X-272880D01*
Y124300D01*
X-302100Y95080D01*
X-733900D01*
X-749970Y79010D01*
G03X-749250Y77270I722J-720D01*
G01X-748230D01*
Y49730D01*
X-751340D01*
G03X-752060Y47990I0J-1019D01*
G02X-773840Y30590I-9942J-9886D01*
G03X-775560I-860J-546D01*
G02X-799240I-11840J7510D01*
G03X-800960I-860J-546D01*
G02X-824640I-11840J7510D01*
G03X-826360I-860J-546D01*
G02X-850040I-11840J7510D01*
G03X-851760I-860J-546D01*
G02X-875440I-11840J7510D01*
G03X-877160I-860J-546D01*
G02X-900840I-11840J7510D01*
G03X-902560I-860J-546D01*
G02X-926240I-11840J7510D01*
G03X-927960I-860J-546D01*
G02X-943680Y24630I-11838J7511D01*
G01X-943970Y24710D01*
X-949800Y18880D01*
X-1006000D01*
X-1044100Y56980D01*
X-1145700D01*
X-1162220Y73500D01*
Y320200D01*
X-1145700Y336720D01*
X-1018700D01*
G37*
G36*
G01X-1835320Y378300D02*
X-1860720Y403700D01*
Y427430D01*
X-1867220D01*
Y450680D01*
X-1889480D01*
Y441680D01*
X-1894410D01*
G03X-1895190Y440010I4J-1019D01*
G02X-1914810I-9810J-8210D01*
G03X-1915590Y441680I-784J651D01*
G01X-1920520D01*
Y472720D01*
X-1889480D01*
Y463720D01*
X-1867220D01*
Y467970D01*
X-1841180D01*
Y427430D01*
X-1847680D01*
Y409100D01*
X-1822280Y383700D01*
Y123180D01*
G02X-1835320I-6520J-8880D01*
G01Y378300D01*
G37*
G36*
G01X-1733720D02*
X-1759120Y403700D01*
Y427430D01*
X-1765620D01*
Y450680D01*
X-1787880D01*
Y441680D01*
X-1792810D01*
G03X-1793590Y440010I4J-1019D01*
G02X-1813210I-9810J-8210D01*
G03X-1813990Y441680I-784J651D01*
G01X-1818920D01*
Y472720D01*
X-1787880D01*
Y463720D01*
X-1765620D01*
Y467970D01*
X-1739580D01*
Y427430D01*
X-1746080D01*
Y409100D01*
X-1720680Y383700D01*
Y135880D01*
G02X-1733720I-6520J-8880D01*
G01Y378300D01*
G37*
G36*
G01X-1632120D02*
X-1657520Y403700D01*
Y427430D01*
X-1664020D01*
Y450680D01*
X-1686280D01*
Y441680D01*
X-1691210D01*
G03X-1691990Y440010I4J-1019D01*
G02X-1711610I-9810J-8210D01*
G03X-1712390Y441680I-784J651D01*
G01X-1717320D01*
Y472720D01*
X-1686280D01*
Y463720D01*
X-1664020D01*
Y467970D01*
X-1637980D01*
Y427430D01*
X-1644480D01*
Y409100D01*
X-1619080Y383700D01*
Y148580D01*
G02X-1632120I-6520J-8880D01*
G01Y378300D01*
G37*
G36*
G01X-1530520D02*
X-1555920Y403700D01*
Y427430D01*
X-1562420D01*
Y450680D01*
X-1584680D01*
Y441680D01*
X-1589610D01*
G03X-1590390Y440010I4J-1019D01*
G02X-1610010I-9810J-8210D01*
G03X-1610790Y441680I-784J651D01*
G01X-1615720D01*
Y472720D01*
X-1584680D01*
Y463720D01*
X-1562420D01*
Y467970D01*
X-1536380D01*
Y427430D01*
X-1542880D01*
Y409100D01*
X-1517480Y383700D01*
Y161280D01*
G02X-1530520I-6520J-8880D01*
G01Y378300D01*
G37*
G36*
G01X-1428920Y391000D02*
X-1454320Y416400D01*
Y427430D01*
X-1460820D01*
Y450680D01*
X-1483080D01*
Y441680D01*
X-1488010D01*
G03X-1488790Y440010I4J-1019D01*
G02X-1508410I-9810J-8210D01*
G03X-1509190Y441680I-784J651D01*
G01X-1514120D01*
Y472720D01*
X-1483080D01*
Y463720D01*
X-1460820D01*
Y467970D01*
X-1434780D01*
Y427430D01*
X-1441280D01*
Y421800D01*
X-1415880Y396400D01*
Y173980D01*
G02X-1428920I-6520J-8880D01*
G01Y391000D01*
G37*
G36*
G01X-1996010Y200380D02*
G03X-1996790Y198710I4J-1019D01*
G02X-2016410I-9810J-8210D01*
G03X-2017190Y200380I-784J651D01*
G01X-2022120D01*
Y231420D01*
X-1991080D01*
Y222300D01*
X-1972200Y203420D01*
X-1968820D01*
Y226670D01*
X-1962320D01*
Y283220D01*
G02X-1949280I6520J8880D01*
G01Y226670D01*
X-1942780D01*
Y186130D01*
X-1968820D01*
Y190380D01*
X-1977600D01*
X-1989340Y202120D01*
G03X-1991080Y201400I-720J-722D01*
G01Y200380D01*
X-1996010D01*
G37*
G36*
G01X-1894410D02*
G03X-1895190Y198710I4J-1019D01*
G02X-1914810I-9810J-8210D01*
G03X-1915590Y200380I-784J651D01*
G01X-1920520D01*
Y231420D01*
X-1889480D01*
Y222300D01*
X-1870600Y203420D01*
X-1867220D01*
Y226670D01*
X-1860720D01*
Y295920D01*
G02X-1847680I6520J8880D01*
G01Y226670D01*
X-1841180D01*
Y186130D01*
X-1867220D01*
Y190380D01*
X-1876000D01*
X-1887740Y202120D01*
G03X-1889480Y201400I-720J-722D01*
G01Y200380D01*
X-1894410D01*
G37*
G36*
G01X-1792810D02*
G03X-1793590Y198710I4J-1019D01*
G02X-1813210I-9810J-8210D01*
G03X-1813990Y200380I-784J651D01*
G01X-1818920D01*
Y231420D01*
X-1787880D01*
Y222300D01*
X-1769000Y203420D01*
X-1765620D01*
Y226670D01*
X-1759120D01*
Y308620D01*
G02X-1746080I6520J8880D01*
G01Y226670D01*
X-1739580D01*
Y186130D01*
X-1765620D01*
Y190380D01*
X-1774400D01*
X-1786140Y202120D01*
G03X-1787880Y201400I-720J-722D01*
G01Y200380D01*
X-1792810D01*
G37*
G36*
G01X-1691210D02*
G03X-1691990Y198710I4J-1019D01*
G02X-1711610I-9810J-8210D01*
G03X-1712390Y200380I-784J651D01*
G01X-1717320D01*
Y231420D01*
X-1686280D01*
Y222300D01*
X-1667400Y203420D01*
X-1664020D01*
Y226670D01*
X-1657520D01*
Y321320D01*
G02X-1644480I6520J8880D01*
G01Y226670D01*
X-1637980D01*
Y186130D01*
X-1664020D01*
Y190380D01*
X-1672800D01*
X-1684540Y202120D01*
G03X-1686280Y201400I-720J-722D01*
G01Y200380D01*
X-1691210D01*
G37*
G36*
G01X-1589610D02*
G03X-1590390Y198710I4J-1019D01*
G02X-1610010I-9810J-8210D01*
G03X-1610790Y200380I-784J651D01*
G01X-1615720D01*
Y231420D01*
X-1584680D01*
Y222300D01*
X-1565800Y203420D01*
X-1562420D01*
Y226670D01*
X-1555920D01*
Y359420D01*
G02X-1542880I6520J8880D01*
G01Y226670D01*
X-1536380D01*
Y186130D01*
X-1562420D01*
Y190380D01*
X-1571200D01*
X-1582940Y202120D01*
G03X-1584680Y201400I-720J-722D01*
G01Y200380D01*
X-1589610D01*
G37*
G36*
G01X-1488010D02*
G03X-1488790Y198710I4J-1019D01*
G02X-1508410I-9810J-8210D01*
G03X-1509190Y200380I-784J651D01*
G01X-1514120D01*
Y231420D01*
X-1483080D01*
Y222300D01*
X-1464200Y203420D01*
X-1460820D01*
Y226670D01*
X-1454320D01*
Y334020D01*
G02X-1441280I6520J8880D01*
G01Y226670D01*
X-1434780D01*
Y186130D01*
X-1460820D01*
Y190380D01*
X-1469600D01*
X-1481340Y202120D01*
G03X-1483080Y201400I-720J-722D01*
G01Y200380D01*
X-1488010D01*
G37*
G36*
G01X-1386410D02*
G03X-1387190Y198710I4J-1019D01*
G02X-1406810I-9810J-8210D01*
G03X-1407590Y200380I-784J651D01*
G01X-1412520D01*
Y231420D01*
X-1381480D01*
Y222300D01*
X-1362600Y203420D01*
X-1359220D01*
Y226670D01*
X-1352720D01*
Y372120D01*
G02X-1339680I6520J8880D01*
G01Y226670D01*
X-1333180D01*
Y186130D01*
X-1359220D01*
Y190380D01*
X-1368000D01*
X-1379740Y202120D01*
G03X-1381480Y201400I-720J-722D01*
G01Y200380D01*
X-1386410D01*
G37*
G36*
G01X-1284810D02*
G03X-1285590Y198710I4J-1019D01*
G02X-1305210I-9810J-8210D01*
G03X-1305990Y200380I-784J651D01*
G01X-1310920D01*
Y231420D01*
X-1279880D01*
Y222300D01*
X-1261000Y203420D01*
X-1257620D01*
Y226670D01*
X-1251120D01*
Y346720D01*
G02X-1238080I6520J8880D01*
G01Y226670D01*
X-1231580D01*
Y186130D01*
X-1257620D01*
Y190380D01*
X-1266400D01*
X-1278140Y202120D01*
G03X-1279880Y201400I-720J-722D01*
G01Y200380D01*
X-1284810D01*
G37*
G36*
G01X-1339680Y416400D02*
X-1365080Y391000D01*
Y275580D01*
G02X-1378120I-6520J-8880D01*
G01Y396400D01*
X-1352720Y421800D01*
Y427430D01*
X-1359220D01*
Y450680D01*
X-1381480D01*
Y441680D01*
X-1386410D01*
G03X-1387190Y440010I4J-1019D01*
G02X-1406810I-9810J-8210D01*
G03X-1407590Y441680I-784J651D01*
G01X-1412520D01*
Y472720D01*
X-1381480D01*
Y463720D01*
X-1359220D01*
Y467970D01*
X-1333180D01*
Y427430D01*
X-1339680D01*
Y416400D01*
G37*
G36*
G01X-1263480Y391000D02*
Y288280D01*
G02X-1276520I-6520J-8880D01*
G01Y396400D01*
X-1251120Y421800D01*
Y427430D01*
X-1257620D01*
Y450680D01*
X-1279880D01*
Y441680D01*
X-1284810D01*
G03X-1285590Y440010I4J-1019D01*
G02X-1305210I-9810J-8210D01*
G03X-1305990Y441680I-784J651D01*
G01X-1310920D01*
Y472720D01*
X-1279880D01*
Y463720D01*
X-1257620D01*
Y467970D01*
X-1231580D01*
Y427430D01*
X-1238080D01*
Y416400D01*
X-1263480Y391000D01*
G37*
%LPD*%
G75*
G54D10*
X-2133600Y127000D03*
X-2136300Y208450D03*
Y308450D03*
X-2133600Y406400D03*
X-2066780Y136570D03*
X-2070100Y393700D03*
X-2038350Y298450D03*
X-2012950Y387350D03*
X-2000200Y22700D03*
X-1962150Y158750D03*
X-1955800Y292100D03*
Y361950D03*
X-1954510Y510700D03*
X-1930400Y101600D03*
X-1909850Y85350D03*
X-1911350Y387350D03*
X-1900200Y22700D03*
X-1892300Y266700D03*
X-1879600Y127000D03*
X-1854200Y304800D03*
X-1848130Y324900D03*
X-1854510Y510700D03*
X-1828800Y114300D03*
X-1809850Y85350D03*
X-1809750Y387350D03*
X-1800200Y22700D03*
X-1790700Y266700D03*
X-1778000Y139700D03*
X-1752600Y317500D03*
X-1749010Y338190D03*
X-1754510Y510700D03*
X-1727200Y127000D03*
X-1709850Y85350D03*
X-1708150Y387350D03*
X-1700200Y22700D03*
X-1689100Y266700D03*
X-1676400Y152400D03*
X-1654510Y510700D03*
X-1651000Y330200D03*
X-1649860Y351170D03*
X-1625600Y139700D03*
X-1609850Y85350D03*
X-1600200Y22700D03*
X-1587500Y266700D03*
Y355600D03*
X-1574800Y165100D03*
X-1549400Y368300D03*
X-1554510Y510700D03*
X-1524000Y152400D03*
X-1509850Y85350D03*
X-1504950Y387350D03*
X-1500200Y22700D03*
X-1485900Y266700D03*
Y349250D03*
X-1473200Y177800D03*
X-1454510Y510700D03*
X-1447800Y342900D03*
X-1422400Y165100D03*
X-1409850Y85350D03*
X-1400200Y22700D03*
X-1397000Y266700D03*
X-1403350Y387350D03*
X-1371600Y266700D03*
X-1354510Y510700D03*
X-1346200Y381000D03*
X-1333500Y400050D03*
X-1327150Y184150D03*
X-1309850Y85350D03*
X-1300200Y22700D03*
X-1295400Y247650D03*
X-1270000Y279400D03*
X-1254510Y510700D03*
X-1244600Y355600D03*
X-1209850Y85350D03*
X-1200200Y22700D03*
X-1174750Y184150D03*
Y247650D03*
X-1172330Y397230D03*
X-1154510Y510700D03*
X-1054100Y25400D03*
X-1054510Y510700D03*
X-1009650Y177800D03*
Y400050D03*
X-954510Y510700D03*
X-908050Y177800D03*
Y400050D03*
X-854510Y510700D03*
X-806450Y400050D03*
X-766190Y181350D03*
X-754510Y510700D03*
X-743590Y22700D03*
X-704850Y400050D03*
X-666190Y181350D03*
X-660620Y85350D03*
X-654510Y510700D03*
X-643590Y22700D03*
X-603250Y400050D03*
X-566190Y181350D03*
X-560840Y78840D03*
X-554510Y510700D03*
X-501650Y400050D03*
X-466190Y181350D03*
X-454510Y510700D03*
X-400050Y400050D03*
X-366190Y181350D03*
X-354510Y510700D03*
X-292100Y400050D03*
X-254510Y510700D03*
X-177800Y25400D03*
X-172920Y386400D03*
X-162690Y471090D03*
X-148850Y189340D03*
Y289340D03*
X-114300Y254000D03*
X-95070Y397410D03*
X-63560Y137130D03*
X-22700Y228400D03*
Y328400D03*
G54D11*
X-2082800Y50800D03*
Y482600D03*
X-76200Y50800D03*
Y482600D03*
G54D12*
X-2006600Y190500D03*
Y431800D03*
X-1905000Y190500D03*
Y431800D03*
X-1803400Y190500D03*
Y431800D03*
X-1701800Y190500D03*
Y431800D03*
X-1600200Y190500D03*
Y431800D03*
X-1498600Y190500D03*
Y431800D03*
X-1397000Y190500D03*
Y431800D03*
X-1295400Y190500D03*
Y431800D03*
X-1041400Y190500D03*
Y431800D03*
X-939800Y190500D03*
Y431800D03*
X-838200Y190500D03*
Y431800D03*
X-736600Y190500D03*
Y431800D03*
X-635000Y190500D03*
Y431800D03*
X-533400Y190500D03*
Y431800D03*
X-431800Y190500D03*
Y431800D03*
X-330200Y190500D03*
Y431800D03*
G54D13*
X-2006600Y215900D03*
Y457200D03*
X-1905000Y215900D03*
Y457200D03*
X-1803400Y215900D03*
Y457200D03*
X-1701800Y215900D03*
Y457200D03*
X-1600200Y215900D03*
Y457200D03*
X-1498600Y215900D03*
Y457200D03*
X-1397000Y215900D03*
Y457200D03*
X-1295400Y215900D03*
Y457200D03*
X-1041400Y215900D03*
Y457200D03*
X-939800Y215900D03*
Y457200D03*
X-838200Y215900D03*
Y457200D03*
X-736600Y215900D03*
Y457200D03*
X-635000Y215900D03*
Y457200D03*
X-533400Y215900D03*
Y457200D03*
X-431800Y215900D03*
Y457200D03*
X-330200Y215900D03*
Y457200D03*
G54D14*
X-1955800Y196900D03*
Y215900D03*
Y438200D03*
Y457200D03*
X-1854200Y196900D03*
Y215900D03*
Y438200D03*
Y457200D03*
X-1752600Y196900D03*
Y215900D03*
Y438200D03*
Y457200D03*
X-1651000Y196900D03*
Y215900D03*
Y438200D03*
Y457200D03*
X-1549400Y196900D03*
Y215900D03*
Y438200D03*
Y457200D03*
X-1447800Y196900D03*
Y215900D03*
Y438200D03*
Y457200D03*
X-1346200Y196900D03*
Y215900D03*
Y438200D03*
Y457200D03*
X-1244600Y196900D03*
Y215900D03*
Y438200D03*
Y457200D03*
X-990600Y196900D03*
Y215900D03*
Y438200D03*
Y457200D03*
X-889000Y196900D03*
Y215900D03*
Y438200D03*
Y457200D03*
X-787400Y196900D03*
Y215900D03*
Y438200D03*
Y457200D03*
X-685800Y196900D03*
Y215900D03*
Y438200D03*
Y457200D03*
X-584200Y196900D03*
Y215900D03*
Y438200D03*
Y457200D03*
X-482600Y196900D03*
Y215900D03*
Y438200D03*
Y457200D03*
X-381000Y196900D03*
Y215900D03*
Y438200D03*
Y457200D03*
X-279400Y196900D03*
Y215900D03*
Y438200D03*
Y457200D03*
G54D15*
X-990600Y38100D03*
Y63500D03*
X-965200Y38100D03*
Y63500D03*
X-939800Y38100D03*
Y63500D03*
X-914400Y38100D03*
Y63500D03*
X-889000Y38100D03*
Y63500D03*
X-863600Y38100D03*
Y63500D03*
X-838200Y38100D03*
Y63500D03*
X-812800Y38100D03*
Y63500D03*
X-787400Y38100D03*
Y63500D03*
X-762000Y38100D03*
X-546100D03*
Y63500D03*
X-520700Y38100D03*
Y63500D03*
X-495300Y38100D03*
Y63500D03*
X-469900Y38100D03*
Y63500D03*
X-444500Y38100D03*
Y63500D03*
X-419100Y38100D03*
Y63500D03*
X-393700Y38100D03*
Y63500D03*
X-368300Y38100D03*
Y63500D03*
X-342900Y38100D03*
Y63500D03*
X-317500Y38100D03*
G54D16*
X-762000Y63500D03*
X-317500D03*
G54D17*
G01X-2006600Y215900D02*
X-1993900D01*
X-1974900Y196900D01*
X-1955800D01*
G01Y457200D02*
X-2006600D01*
G01X-1955800Y292100D02*
Y215900D01*
G01X-1930400Y101600D02*
Y381000D01*
X-1955800Y406400D01*
Y438200D01*
G01X-1905000Y215900D02*
X-1892300D01*
X-1873300Y196900D01*
X-1854200D01*
G01Y457200D02*
X-1905000D01*
G01X-1854200Y304800D02*
Y215900D01*
G01X-1828800Y114300D02*
Y381000D01*
X-1854200Y406400D01*
Y438200D01*
G01X-1803400Y215900D02*
X-1790700D01*
X-1771700Y196900D01*
X-1752600D01*
G01Y457200D02*
X-1803400D01*
G01X-1752600Y317500D02*
Y215900D01*
G01X-1727200Y127000D02*
Y381000D01*
X-1752600Y406400D01*
Y438200D01*
G01X-1701800Y215900D02*
X-1689100D01*
X-1670100Y196900D01*
X-1651000D01*
G01Y457200D02*
X-1701800D01*
G01X-1651000Y330200D02*
Y215900D01*
G01X-1625600Y139700D02*
Y381000D01*
X-1651000Y406400D01*
Y438200D01*
G01X-1600200Y215900D02*
X-1587500D01*
X-1568500Y196900D01*
X-1549400D01*
G01Y457200D02*
X-1600200D01*
G01X-1549400Y368300D02*
Y215900D01*
G01X-1524000Y152400D02*
Y381000D01*
X-1549400Y406400D01*
Y438200D01*
G01X-1498600Y215900D02*
X-1485900D01*
X-1466900Y196900D01*
X-1447800D01*
G01Y457200D02*
X-1498600D01*
G01X-1447800Y342900D02*
Y215900D01*
G01X-1422400Y165100D02*
Y393700D01*
X-1447800Y419100D01*
Y438200D01*
G01X-1397000Y215900D02*
X-1384300D01*
X-1365300Y196900D01*
X-1346200D01*
G01Y457200D02*
X-1397000D01*
G01X-1371600Y266700D02*
Y393700D01*
X-1346200Y419100D01*
Y438200D01*
G01Y381000D02*
Y215900D01*
G01X-1295400D02*
X-1282700D01*
X-1263700Y196900D01*
X-1244600D01*
G01Y457200D02*
X-1295400D01*
G01X-1270000Y279400D02*
Y393700D01*
X-1244600Y419100D01*
Y438200D01*
G01Y355600D02*
Y215900D01*
G01X-939800Y38100D02*
X-952500Y25400D01*
X-1003300D01*
X-1041400Y63500D01*
X-1143000D01*
X-1155700Y76200D01*
Y317500D01*
X-1143000Y330200D01*
X-1016000D01*
X-990600Y355600D01*
Y438200D01*
G01X-939800Y63500D02*
X-952500Y76200D01*
X-1130300D01*
X-1143000Y88900D01*
Y304800D01*
X-1130300Y317500D01*
X-914400D01*
X-889000Y342900D01*
Y438200D01*
G01X-914400Y38100D02*
X-927100Y50800D01*
Y76200D01*
X-939800Y88900D01*
X-1117600D01*
X-1130300Y101600D01*
Y292100D01*
X-1117600Y304800D01*
X-812800D01*
X-787400Y330200D01*
Y438200D01*
G01X-914400Y63500D02*
Y88900D01*
X-927100Y101600D01*
X-1104900D01*
X-1117600Y114300D01*
Y279400D01*
X-1104900Y292100D01*
X-711200D01*
X-685800Y317500D01*
Y438200D01*
G01X-889000Y38100D02*
X-901700Y50800D01*
Y101600D01*
X-914400Y114300D01*
X-1092200D01*
X-1104900Y127000D01*
Y266700D01*
X-1092200Y279400D01*
X-609600D01*
X-584200Y304800D01*
Y438200D01*
G01X-889000Y63500D02*
Y114300D01*
X-901700Y127000D01*
X-1079500D01*
X-1092200Y139700D01*
Y254000D01*
X-1079500Y266700D01*
X-508000D01*
X-482600Y292100D01*
Y438200D01*
G01X-863600Y38100D02*
X-876300Y50800D01*
Y127000D01*
X-889000Y139700D01*
X-1066800D01*
X-1079500Y152400D01*
Y241300D01*
X-1066800Y254000D01*
X-406400D01*
X-381000Y279400D01*
Y438200D01*
G01X-863600Y63500D02*
Y139700D01*
X-876300Y152400D01*
X-1054100D01*
X-1066800Y165100D01*
Y228600D01*
X-1054100Y241300D01*
X-304800D01*
X-279400Y266700D01*
Y438200D01*
G01X-990600Y215900D02*
X-1041400D01*
G01X-990600Y457200D02*
X-1041400D01*
G01X-838200Y38100D02*
X-850900Y50800D01*
Y152400D01*
X-863600Y165100D01*
X-966070D01*
X-990600Y189630D01*
Y196900D01*
G01X-889000Y215900D02*
X-939800D01*
G01X-889000Y457200D02*
X-939800D01*
G01X-838200Y63500D02*
Y165100D01*
X-870000Y196900D01*
X-889000D01*
G01X-787400Y215900D02*
X-838200D01*
G01X-787400Y457200D02*
X-838200D01*
G01X-812800Y38100D02*
X-825500Y50800D01*
Y139700D01*
X-787400Y177800D01*
Y196900D01*
G01X-812800Y63500D02*
Y127000D01*
X-787400Y152400D01*
X-711200D01*
X-685800Y177800D01*
Y196900D01*
G01X-787400Y38100D02*
X-800100Y50800D01*
Y114300D01*
X-774700Y139700D01*
X-609600D01*
X-584200Y165100D01*
Y196900D01*
G01X-787400Y63500D02*
Y101600D01*
X-762000Y127000D01*
X-508000D01*
X-482600Y152400D01*
Y196900D01*
G01X-762000Y38100D02*
X-774700Y50800D01*
Y88900D01*
X-749300Y114300D01*
X-406400D01*
X-381000Y139700D01*
Y196900D01*
G01X-762000Y63500D02*
Y76200D01*
X-736600Y101600D01*
X-304800D01*
X-279400Y127000D01*
Y196900D01*
G01X-685800Y215900D02*
X-736600D01*
G01X-685800Y457200D02*
X-736600D01*
G01X-584200Y215900D02*
X-635000D01*
G01Y457200D02*
X-584200D01*
G01X-482600Y215900D02*
X-533400D01*
G01X-482600Y457200D02*
X-533400D01*
G01X-381000Y215900D02*
X-431800D01*
G01X-381000Y457200D02*
X-431800D01*
G01X-279400Y215900D02*
X-330200D01*
G01X-279400Y457200D02*
X-330200D01*
G54D18*
G01X-2019900Y190500D02*
X-2006600D01*
G01X-2019900Y431800D02*
X-2006600D01*
G01Y177200D02*
Y190500D01*
G01D02*
X-1993300D01*
G01X-2006600Y418500D02*
Y431800D01*
G01D02*
X-1993300D01*
G01X-1918300Y190500D02*
X-1905000D01*
G01X-1918300Y431800D02*
X-1905000D01*
G01Y177200D02*
Y190500D01*
G01D02*
X-1891700D01*
G01X-1905000Y418500D02*
Y431800D01*
G01D02*
X-1891700D01*
G01X-1816700Y190500D02*
X-1803400D01*
G01X-1816700Y431800D02*
X-1803400D01*
G01Y177200D02*
Y190500D01*
G01D02*
X-1790100D01*
G01X-1803400Y418500D02*
Y431800D01*
G01D02*
X-1790100D01*
G01X-1715100Y190500D02*
X-1701800D01*
G01X-1715100Y431800D02*
X-1701800D01*
G01Y177200D02*
Y190500D01*
G01D02*
X-1688500D01*
G01X-1701800Y418500D02*
Y431800D01*
G01D02*
X-1688500D01*
G01X-1613500Y190500D02*
X-1600200D01*
G01X-1613500Y431800D02*
X-1600200D01*
G01Y177200D02*
Y190500D01*
G01D02*
X-1586900D01*
G01X-1600200Y418500D02*
Y431800D01*
G01D02*
X-1586900D01*
G01X-1511900Y190500D02*
X-1498600D01*
G01X-1511900Y431800D02*
X-1498600D01*
G01Y177200D02*
Y190500D01*
G01D02*
X-1485300D01*
G01X-1498600Y418500D02*
Y431800D01*
G01D02*
X-1485300D01*
G01X-1410300Y190500D02*
X-1397000D01*
G01X-1410300Y431800D02*
X-1397000D01*
G01Y177200D02*
Y190500D01*
G01D02*
X-1383700D01*
G01X-1397000Y418500D02*
Y431800D01*
G01D02*
X-1383700D01*
G01X-1308700Y190500D02*
X-1295400D01*
G01X-1308700Y431800D02*
X-1295400D01*
G01Y177200D02*
Y190500D01*
G01D02*
X-1282100D01*
G01X-1295400Y418500D02*
Y431800D01*
G01D02*
X-1282100D01*
G01X-1054700D02*
X-1041400D01*
G01Y418500D02*
Y431800D01*
G01D02*
X-1028100D01*
G01X-953100Y190500D02*
X-939800D01*
G01X-953100Y431800D02*
X-939800D01*
G01Y177200D02*
Y190500D01*
G01D02*
X-926500D01*
G01X-939800Y418500D02*
Y431800D01*
G01D02*
X-926500D01*
G01X-851500Y190500D02*
X-838200D01*
G01X-851500Y431800D02*
X-838200D01*
G01Y418500D02*
Y431800D01*
G01D02*
X-824900D01*
G01X-749900Y190500D02*
X-736600D01*
G01X-749900Y431800D02*
X-736600D01*
G01Y177200D02*
Y190500D01*
G01D02*
X-723300D01*
G01X-736600Y418500D02*
Y431800D01*
G01D02*
X-723300D01*
G01X-648300Y190500D02*
X-635000D01*
G01X-648300Y431800D02*
X-635000D01*
G01Y177200D02*
Y190500D01*
G01D02*
X-621700D01*
G01X-635000Y418500D02*
Y431800D01*
G01D02*
X-621700D01*
G01X-557900Y38100D02*
X-546100D01*
G01X-557900Y63500D02*
X-546100D01*
G01Y26300D02*
Y38100D01*
G01D02*
Y49900D01*
G01Y51700D02*
Y63500D01*
G01D02*
Y75300D01*
G01X-546700Y190500D02*
X-533400D01*
G01X-546700Y431800D02*
X-533400D01*
G01Y177200D02*
Y190500D01*
G01D02*
X-520100D01*
G01X-533400Y418500D02*
Y431800D01*
G01D02*
X-520100D01*
G01X-445100Y190500D02*
X-431800D01*
G01X-445100Y431800D02*
X-431800D01*
G01Y177200D02*
Y190500D01*
G01D02*
X-418500D01*
G01X-431800Y418500D02*
Y431800D01*
G01D02*
X-418500D01*
G01X-343500Y190500D02*
X-330200D01*
G01X-343500Y431800D02*
X-330200D01*
G01Y177200D02*
Y190500D01*
G01D02*
X-316900D01*
G01X-330200Y418500D02*
Y431800D01*
G01D02*
X-316900D01*
M02*
